<svg width="266" height="307" viewBox="0 0 266 307" fill="none" xmlns="http://www.w3.org/2000/svg">
<g filter="url(#filter0_d_164_50)">
<path fill-rule="evenodd" clip-rule="evenodd" d="M140.774 30.9957C140.753 31.1757 141.017 31.6062 141.157 31.6219C141.22 31.6291 141.267 31.6848 141.26 31.7457C141.253 31.8066 141.347 31.9286 141.469 32.0168C141.591 32.1049 141.67 32.2032 141.644 32.2351C141.617 32.2671 141.632 32.2973 141.676 32.3022C141.72 32.3072 141.77 32.3811 141.789 32.4665C141.807 32.5518 141.888 32.6502 141.969 32.6851C142.053 32.7212 142.093 32.7918 142.062 32.8489C142.028 32.913 142.075 32.966 142.193 32.9956C142.328 33.0297 142.378 33.1003 142.379 33.2621C142.38 33.4205 142.416 33.4736 142.506 33.4515C142.636 33.4199 142.843 33.6072 142.828 33.7427C142.823 33.7851 142.889 33.8499 142.975 33.8867C143.06 33.9234 143.123 34.0202 143.114 34.1018C143.103 34.1973 143.152 34.2565 143.252 34.2677C143.338 34.2774 143.423 34.358 143.442 34.4471C143.461 34.5361 143.554 34.7084 143.648 34.8298C143.742 34.9513 143.796 35.0787 143.768 35.1129C143.74 35.1472 143.791 35.1835 143.882 35.1938C143.973 35.204 144.044 35.2494 144.039 35.2947C144.025 35.4161 144.216 35.6201 144.359 35.6361C144.433 35.6445 144.46 35.692 144.426 35.7544C144.395 35.8135 144.436 35.9023 144.523 35.9594C144.606 36.0147 144.678 36.1391 144.681 36.2359C144.685 36.3507 144.743 36.4179 144.847 36.4298C144.941 36.4404 145.013 36.5104 145.02 36.5992C145.038 36.7972 145.209 36.9986 145.319 36.9496C145.368 36.9274 145.396 36.9949 145.383 37.1073C145.366 37.2632 145.401 37.3082 145.554 37.3254C145.659 37.3373 145.739 37.3901 145.731 37.4426C145.693 37.6916 145.721 37.809 145.815 37.8018C145.872 37.7973 145.918 37.8875 145.919 38.0079C145.92 38.1542 145.967 38.2271 146.068 38.2384C146.155 38.2483 146.226 38.3309 146.242 38.4431C146.257 38.5466 146.34 38.6577 146.427 38.6899C146.513 38.7221 146.577 38.8126 146.568 38.8909C146.559 38.9693 146.63 39.0767 146.724 39.1296C146.819 39.1825 146.902 39.2959 146.909 39.3816C146.916 39.4672 146.989 39.6066 147.071 39.6913C147.152 39.7759 147.187 39.8416 147.147 39.8372C147.106 39.8329 147.184 39.911 147.318 40.0109C147.464 40.119 147.556 40.255 147.545 40.3471C147.536 40.4325 147.581 40.5078 147.647 40.5152C147.713 40.5226 147.779 40.6175 147.795 40.7262C147.811 40.8349 147.874 40.9294 147.935 40.9362C147.995 40.9431 148.059 41.0464 148.075 41.1659C148.092 41.2853 148.163 41.473 148.234 41.5829C148.304 41.6928 148.358 41.8172 148.353 41.8593C148.343 41.95 148.627 42.258 148.732 42.2698C148.772 42.2743 148.777 42.3115 148.744 42.3523C148.659 42.4558 148.822 42.6686 149.001 42.6888C149.124 42.7027 149.137 42.7454 149.076 42.9305C149.012 43.1239 149.026 43.1581 149.173 43.1746C149.282 43.1869 149.339 43.2429 149.33 43.3284C149.323 43.4023 149.397 43.5544 149.496 43.6661C149.595 43.7779 149.671 43.9126 149.665 43.9653C149.659 44.018 149.731 44.1613 149.826 44.2838C150.007 44.5173 150.104 44.8069 150.054 44.9634C150.036 45.0186 150.076 45.0433 150.153 45.0246C150.244 45.0025 150.277 45.0405 150.265 45.1524C150.255 45.24 150.323 45.3652 150.417 45.4305C150.51 45.4959 150.584 45.584 150.581 45.6264C150.573 45.7383 150.812 46.3475 150.879 46.3852C150.91 46.4028 150.991 46.5828 151.058 46.7853C151.126 46.9877 151.247 47.2213 151.327 47.3043C151.407 47.3874 151.466 47.5117 151.458 47.5806C151.451 47.6496 151.48 47.7101 151.525 47.715C151.569 47.72 151.599 47.7759 151.592 47.8392C151.585 47.9026 151.615 47.9585 151.66 47.9635C151.704 47.9684 151.734 48.0243 151.727 48.0877C151.72 48.151 151.749 48.2068 151.792 48.2116C151.835 48.2164 151.845 48.2668 151.814 48.3237C151.781 48.3863 151.824 48.4551 151.925 48.4983C152.061 48.557 152.077 48.608 152.014 48.7875C151.966 48.923 151.97 49.009 152.024 49.0151C152.213 49.0364 152.412 49.3893 152.383 49.6515C152.366 49.7978 152.375 49.9006 152.402 49.8798C152.492 49.8115 152.641 50.0262 152.581 50.1376C152.548 50.2002 152.608 50.3534 152.724 50.4979C152.835 50.6363 152.929 50.8284 152.933 50.9251C152.938 51.0216 152.973 51.1153 153.012 51.1332C153.051 51.151 153.055 51.2186 153.02 51.2835C152.973 51.369 152.992 51.3927 153.087 51.3696C153.185 51.3457 153.203 51.3743 153.159 51.4856C153.12 51.5821 153.154 51.6793 153.255 51.7649C153.344 51.8401 153.386 51.9425 153.353 52.0042C153.321 52.0636 153.337 52.117 153.389 52.1228C153.447 52.1294 153.457 52.1907 153.415 52.2813C153.376 52.366 153.383 52.4332 153.433 52.4387C153.48 52.444 153.513 52.4979 153.506 52.5584C153.499 52.6189 153.565 52.6991 153.652 52.7366C153.766 52.7854 153.792 52.8452 153.746 52.9467C153.709 53.026 153.718 53.0927 153.766 53.0982C153.813 53.1035 153.842 53.1902 153.831 53.2908C153.817 53.4138 153.866 53.4944 153.98 53.5368C154.121 53.5893 154.13 53.6174 154.035 53.7042C153.909 53.8205 153.951 53.9741 154.114 53.9925C154.173 53.9991 154.232 54.0757 154.246 54.1628C154.259 54.2498 154.238 54.3174 154.197 54.3128C154.157 54.3083 154.121 54.3392 154.116 54.3814C154.111 54.4236 154.166 54.4647 154.237 54.4727C154.336 54.4839 154.349 54.5326 154.292 54.6798C154.248 54.7917 154.251 54.8573 154.297 54.8366C154.385 54.797 154.599 55.3112 154.556 55.4606C154.511 55.617 154.614 55.8367 154.738 55.8508C154.803 55.858 154.834 55.8897 154.808 55.9211C154.729 56.0176 154.835 56.6728 154.947 56.7744C155.004 56.827 155.052 57.001 155.052 57.161C155.053 57.3209 155.09 57.4955 155.134 57.5489C155.179 57.6022 155.209 57.708 155.2 57.784C155.191 57.86 155.221 57.9263 155.265 57.9313C155.309 57.9363 155.338 58.0074 155.329 58.0893C155.319 58.1713 155.346 58.2642 155.388 58.2958C155.43 58.3274 155.443 58.3797 155.416 58.412C155.39 58.4444 155.424 58.4985 155.491 58.5324C155.565 58.569 155.59 58.6403 155.553 58.7087C155.519 58.7718 155.542 58.8841 155.604 58.9583C155.678 59.0469 155.685 59.107 155.626 59.1339C155.525 59.179 155.624 59.682 155.736 59.6946C155.771 59.6985 155.793 59.7535 155.786 59.8169C155.779 59.8802 155.81 59.9361 155.855 59.9412C155.905 59.9468 155.902 60.0694 155.847 60.2631C155.782 60.4902 155.785 60.5638 155.856 60.5317C155.919 60.5036 155.949 60.5469 155.937 60.6501C155.927 60.7395 155.957 60.7954 156.004 60.7743C156.052 60.7532 156.083 60.8042 156.073 60.8876C156.064 60.971 156.096 61.0571 156.145 61.0788C156.211 61.1084 156.205 61.1581 156.121 61.2752C156.027 61.4052 156.032 61.46 156.146 61.5962C156.225 61.691 156.289 61.9323 156.296 62.1661C156.303 62.3892 156.348 62.6693 156.397 62.7885C156.446 62.9077 156.481 63.0572 156.476 63.1207C156.471 63.1842 156.512 63.3089 156.567 63.3979C156.656 63.5401 156.651 63.5794 156.526 63.7237C156.393 63.8765 156.395 63.889 156.547 63.9061C156.684 63.9215 156.704 63.9744 156.674 64.2397C156.648 64.4693 156.668 64.5476 156.749 64.528C156.834 64.5074 156.848 64.6287 156.809 65.0443C156.782 65.3431 156.788 65.6114 156.824 65.6406C156.924 65.7222 156.985 65.9838 156.985 66.3265C156.985 66.4975 157.013 66.6505 157.046 66.6665C157.08 66.6825 157.082 66.7734 157.052 66.8686C157.021 66.9665 157.046 67.1015 157.111 67.179C157.188 67.2704 157.213 67.4718 157.187 67.7828C157.166 68.0395 157.177 68.2527 157.212 68.2566C157.247 68.2606 157.249 68.3132 157.216 68.3737C157.183 68.4342 157.199 68.4884 157.251 68.4942C157.302 68.5 157.318 68.5368 157.286 68.576C157.254 68.6151 157.265 68.6513 157.31 68.6564C157.356 68.6615 157.366 68.7157 157.333 68.7766C157.3 68.8376 157.312 68.9439 157.36 69.0129C157.416 69.0933 157.416 69.2887 157.362 69.5565C157.293 69.9012 157.3 69.9771 157.406 69.9899C157.491 70.0003 157.5 70.0206 157.433 70.0515C157.322 70.103 157.329 70.5243 157.442 70.537C157.481 70.5413 157.501 70.6449 157.488 70.767C157.472 70.9064 157.512 71.0138 157.596 71.0555C157.677 71.0962 157.694 71.1387 157.638 71.1658C157.54 71.214 157.427 72.0123 157.517 72.0225C157.576 72.0292 157.606 72.4134 157.602 73.1204C157.6 73.3554 157.638 73.5778 157.685 73.6145C157.742 73.6589 157.742 73.6783 157.684 73.6726C157.631 73.6674 157.58 73.8324 157.554 74.0868C157.531 74.3193 157.544 74.5132 157.583 74.5176C157.622 74.522 157.625 74.6168 157.589 74.7281C157.554 74.8396 157.552 75.0231 157.586 75.1359C157.62 75.2488 157.633 75.4233 157.615 75.5238C157.598 75.6243 157.62 75.7587 157.664 75.8225C157.728 75.9157 157.715 75.926 157.597 75.8749C157.459 75.8151 157.459 75.8209 157.595 75.97C157.677 76.0602 157.724 76.2112 157.703 76.3191C157.533 77.1951 157.509 77.3857 157.567 77.3922C157.604 77.3963 157.587 77.4862 157.531 77.5919C157.458 77.7284 157.452 77.8191 157.511 77.9047C157.559 77.9735 157.567 78.2542 157.53 78.5582C157.495 78.8514 157.497 79.0946 157.535 79.0989C157.573 79.1031 157.577 79.156 157.544 79.2165C157.512 79.277 157.524 79.3308 157.572 79.3362C157.633 79.3431 157.628 79.4044 157.554 79.5416C157.497 79.6492 157.476 79.7605 157.508 79.789C157.59 79.862 157.574 80.1138 157.487 80.1041C157.378 80.0918 157.363 80.4933 157.463 80.7231C157.526 80.8667 157.525 80.9531 157.459 81.0141C157.407 81.0618 157.396 81.1044 157.434 81.1088C157.539 81.1207 157.283 83.3457 157.178 83.3367C157.131 83.3327 157.154 83.3731 157.229 83.4264C157.332 83.5 157.341 83.5458 157.264 83.6158C157.19 83.6843 157.185 83.826 157.248 84.1618C157.346 84.6929 157.211 85.5087 156.843 86.6006C156.384 87.9622 155.804 88.9254 154.868 89.8817C154.087 90.6789 152.245 92.0871 151.679 92.3188C151.444 92.4151 151.232 92.5109 151.207 92.5315C151.182 92.5521 151.01 92.6172 150.824 92.676C150.638 92.7349 150.38 92.822 150.25 92.8696C150.121 92.9172 149.915 92.962 149.793 92.9692C149.672 92.9764 149.532 93.0067 149.482 93.0365C149.298 93.1471 147.959 93.2746 147.173 93.2565C146.682 93.2452 133.329 91.7693 113.523 89.5372C80.4699 85.8124 79.0888 85.6671 76.3083 85.6231C74.1696 85.5893 70.7356 85.7418 69.6316 85.9197C69.4722 85.9454 69.0992 85.9725 68.8028 85.9798C67.6821 86.0078 62.8077 86.9072 61.7359 87.2839C61.5726 87.3413 61.0821 87.4627 60.646 87.5537C59.6382 87.764 54.1534 89.6163 53.7204 89.8926C53.6355 89.9468 53.07 90.2086 52.4637 90.4744C51.8574 90.7401 51.1992 91.0484 51.0011 91.1594C50.8028 91.2704 50.5458 91.3896 50.4298 91.4241C50.2 91.4926 48.1961 92.5627 48.0466 92.6968C47.933 92.7987 46.9457 93.3624 46.4773 93.5929C46.2874 93.6863 45.8728 93.9485 45.5559 94.1756C45.239 94.4026 44.565 94.8614 44.0581 95.195C43.5513 95.5286 42.7325 96.1234 42.2385 96.5167C41.7445 96.9101 40.9885 97.5007 40.5583 97.8294C40.128 98.158 39.7039 98.5125 39.6158 98.6173C39.5276 98.722 39.1083 99.1145 38.684 99.4895C37.6103 100.438 36.8193 101.202 36.6329 101.469C36.546 101.593 36.2975 101.861 36.0804 102.064C35.4942 102.613 34.1086 104.205 33.263 105.302C32.8535 105.833 32.3584 106.462 32.1627 106.699C31.6952 107.266 30.9051 108.435 30.0176 109.873C29.6228 110.512 29.1894 111.209 29.0544 111.421C28.6197 112.105 27.4885 114.216 27.2646 114.762C27.1451 115.053 26.898 115.607 26.7154 115.992C25.4825 118.596 24.1382 122.51 23.5786 125.124C23.1033 127.345 22.7149 130.56 19.2571 160.903C15.7535 191.648 15.5745 193.322 15.3959 197.006C15.2544 199.926 15.662 204.202 16.4036 207.575C16.553 208.255 16.6707 208.854 16.6652 208.908C16.6531 209.026 17.39 211.814 17.4645 211.932C17.4938 211.978 17.6315 212.378 17.7705 212.821C18.0065 213.574 18.1287 213.923 18.8182 215.815C18.9644 216.217 19.4125 217.258 19.8139 218.13C20.2153 219.002 20.5838 219.813 20.633 219.933C20.826 220.403 22.3332 223.099 23.1284 224.397C23.4845 224.978 25.0387 227.211 25.5268 227.843C27.1203 229.906 30.2356 233.543 30.428 233.564C30.4606 233.568 30.5546 233.657 30.6367 233.763C30.7189 233.868 30.8903 234.054 31.0176 234.175C31.1451 234.296 31.3272 234.483 31.4223 234.59C31.5175 234.697 31.6294 234.788 31.6711 234.793C31.7127 234.797 31.9009 234.975 32.0893 235.188C32.2778 235.4 32.494 235.601 32.57 235.633C32.6459 235.666 32.7216 235.741 32.7381 235.801C32.7546 235.861 32.8648 235.97 32.9831 236.045C33.4122 236.314 33.5733 236.44 33.8633 236.73C33.9235 236.79 34.0205 236.845 34.079 236.852C34.1375 236.858 34.2306 236.941 34.2859 237.035C34.3412 237.13 34.5049 237.295 34.6497 237.403C34.7945 237.51 34.9645 237.667 35.0275 237.751C35.0906 237.835 35.1844 237.909 35.2361 237.915C35.3214 237.924 35.6857 238.175 35.773 238.284C35.8752 238.412 36.8938 239.112 36.994 239.123C37.0459 239.129 37.1956 239.232 37.3267 239.352C37.4578 239.472 37.7166 239.648 37.9017 239.743C38.0868 239.838 38.3686 240.028 38.5279 240.166C38.6872 240.304 38.8665 240.422 38.9262 240.429C38.986 240.436 39.0316 240.47 39.0277 240.505C39.0237 240.541 39.0657 240.575 39.1208 240.583C39.1761 240.59 39.5134 240.77 39.8705 240.983C40.8183 241.547 41.3137 241.823 41.7497 242.028C41.9625 242.128 42.6898 242.509 43.3659 242.875C45.0983 243.811 47.8765 245.119 48.668 245.371C48.8194 245.419 49.7194 245.733 50.6679 246.068C53.4682 247.057 55.5977 247.652 58.6885 248.307C60.0013 248.585 62.1213 248.832 95.4946 252.588C133.51 256.868 131.405 256.652 134.694 256.605C136.674 256.577 138.453 256.453 140.485 256.204C141.394 256.092 142.376 255.978 142.666 255.951C143.249 255.895 145.833 255.376 146.885 255.103C150.204 254.241 151.87 253.73 153.554 253.057C154.024 252.869 154.637 252.633 154.917 252.531C155.715 252.243 157.68 251.364 158.35 250.995C158.685 250.812 159.186 250.566 159.463 250.449C159.953 250.243 160.937 249.718 161.12 249.566C161.222 249.48 162.696 248.605 163.216 248.32C164.414 247.665 168.777 244.372 170.112 243.115C170.384 242.86 170.93 242.365 171.325 242.016C171.72 241.667 172.264 241.127 172.534 240.815C172.804 240.503 173.242 240.029 173.508 239.762C175.232 238.031 177.533 235.035 179.226 232.317C180.844 229.72 181.499 228.565 182.004 227.421C182.184 227.014 182.398 226.531 182.481 226.348C183.096 224.982 183.506 224.023 183.639 223.64C183.696 223.476 183.813 223.192 183.9 223.009C183.987 222.826 184.18 222.289 184.33 221.814C184.479 221.339 184.651 220.816 184.712 220.652C184.849 220.282 185.201 218.964 185.533 217.576L185.655 217.064L184.841 214.271C184.393 212.736 183.956 211.174 183.869 210.8C183.782 210.427 183.6 209.742 183.463 209.278C183.327 208.813 183.049 207.855 182.845 207.148C182.641 206.441 182.365 205.503 182.232 205.064C182.099 204.625 181.995 204.22 182.001 204.165C182.007 204.109 181.599 202.643 181.093 200.907C180.587 199.172 180.153 197.627 180.128 197.474C180.102 197.322 179.674 195.798 179.176 194.087C178.677 192.376 178.273 190.943 178.278 190.901C178.286 190.828 177.786 189.049 177.055 186.556C176.615 185.055 176.462 184.489 176.336 183.91C176.284 183.669 176.178 183.272 176.1 183.028C175.736 181.881 175.143 179.708 175.181 179.662C175.205 179.633 175.404 179.568 175.624 179.516C176.766 179.25 179.434 178.13 180.777 177.352C181.803 176.759 183.787 175.229 184.624 174.386C185.831 173.172 187.222 171.338 187.968 169.977C188.409 169.173 189.28 166.923 189.595 165.773C189.877 164.746 190.237 161.329 190.169 160.318C190.122 159.612 189.938 158.07 189.802 157.245C189.596 155.999 188.734 153.734 187.822 152.046C186.19 149.026 183.488 146.332 180.133 144.376C179.217 143.842 177.584 143.111 176.913 142.933C176.586 142.847 176.107 142.705 175.848 142.617C174.895 142.294 173.758 142.074 172.099 141.892C170.077 141.671 168.956 141.681 166.674 141.939C164.706 142.162 161.364 143.339 159.437 144.487C157.589 145.589 155.058 147.711 154.276 148.814C154.107 149.052 153.793 149.471 153.577 149.746C152.499 151.119 151.305 153.344 150.98 154.585C150.915 154.834 150.771 155.342 150.661 155.714C150.006 157.911 149.812 160.508 150.086 163.386C150.139 163.94 150.504 165.525 150.77 166.358C151.125 167.465 152.071 169.516 152.69 170.519C153.817 172.343 155.9 174.67 157.381 175.759C158.619 176.669 159.361 177.176 159.826 177.431C160.1 177.582 160.337 177.716 160.352 177.729C160.368 177.743 159.963 178.508 159.452 179.43C158.942 180.352 158.488 181.198 158.445 181.31C158.402 181.422 158.162 181.88 157.911 182.329C157.661 182.778 157.202 183.606 156.891 184.17C156.581 184.733 156.227 185.358 156.105 185.558C155.914 185.871 155.387 186.878 155.031 187.614C154.972 187.736 154.295 188.954 153.528 190.321C152.76 191.688 151.973 193.14 151.779 193.547C151.584 193.954 151.333 194.433 151.22 194.612C150.899 195.121 149.538 197.595 147.942 200.576C147.596 201.221 146.902 202.479 146.399 203.372C145.896 204.264 145.423 205.138 145.347 205.313C145.272 205.489 144.551 206.814 143.746 208.258C142.94 209.702 142.138 211.178 141.963 211.539C141.787 211.9 141.463 212.422 141.243 212.698C140.795 213.261 139.324 214.411 138.586 214.776C137.833 215.147 136.821 215.428 135.853 215.534C133.766 215.763 136.307 216.018 100.19 211.953C64.1468 207.897 66.1604 208.147 64.1942 207.477C63.1778 207.131 62.8638 206.988 62.1663 206.552C61.2353 205.97 59.9123 204.644 59.4342 203.813C58.7812 202.679 58.2686 200.655 58.1984 198.935C58.1574 197.929 65.237 135.069 65.5244 133.888C65.8817 132.418 66.3978 131.218 67.1737 130.053C67.8749 128.999 68.3444 128.571 69.6003 127.838C70.9083 127.074 72.1745 126.686 73.9793 126.497C74.7319 126.418 74.7321 126.418 96.0365 128.774L117.341 131.13L118.555 129.36C119.223 128.387 119.813 127.526 119.865 127.448C120.254 126.867 120.465 126.589 121.331 125.516C121.868 124.849 122.423 124.194 122.564 124.061C122.704 123.927 122.888 123.703 122.971 123.562C123.139 123.282 123.771 122.592 124.995 121.355C125.435 120.91 125.902 120.419 126.032 120.263C126.163 120.107 126.346 119.924 126.439 119.857C126.532 119.79 126.908 119.454 127.273 119.11C130.564 116.019 134.975 112.815 139.064 110.545C140.865 109.545 142.301 108.838 144.553 107.843C146.036 107.187 145.911 107.237 147.07 106.836C147.56 106.666 148.113 106.458 148.299 106.373C148.589 106.241 150.176 105.708 151.269 105.375C152.697 104.941 156.932 103.924 158.107 103.733C163.34 102.883 167.588 102.602 172.549 102.778C174.382 102.843 179.156 103.403 181.076 103.778C184.912 104.528 187.949 105.382 191.386 106.676C192.289 107.016 193.222 107.359 193.46 107.438C194.043 107.632 195.123 108.105 196.567 108.799C197.226 109.116 197.822 109.398 197.892 109.427C198.008 109.474 198.068 109.088 198.582 105.007C199.326 99.0951 200.62 86.9933 200.684 85.3553C200.848 81.144 200.525 77.2963 199.701 73.6225C199.612 73.2277 199.498 72.6549 199.448 72.3496C199.314 71.539 198.667 69.3129 198.073 67.6235C197.788 66.8137 197.541 66.0796 197.523 65.992C197.471 65.7382 196.462 63.391 195.959 62.3566C195.707 61.8365 195.47 61.3188 195.433 61.2062C195.338 60.9207 193.751 58.0778 193.512 57.7666C193.405 57.6262 193.303 57.4557 193.287 57.3878C193.244 57.209 192.251 55.6894 191.755 55.0422C191.521 54.738 191.206 54.286 191.054 54.0376C190.687 53.4403 188.323 50.5222 187.677 49.8702C187.397 49.5875 186.906 49.0633 186.585 48.7054C185.902 47.9411 185.027 47.0836 184.594 46.753C184.425 46.6241 184.175 46.397 184.039 46.2486C183.617 45.787 182.141 44.5531 180.769 43.5137C180.046 42.9663 179.252 42.3591 179.005 42.1644C178.465 41.739 174.297 39.1537 173.215 38.5731C172.792 38.3464 172.167 38.0322 171.826 37.8752C171.486 37.7181 170.649 37.3284 169.968 37.0092C167.663 35.9293 163.952 34.499 163.25 34.4198C163.117 34.4048 162.636 34.2803 162.181 34.143C160.991 33.7844 158.701 33.2302 157.009 32.8918C155.83 32.6559 154.129 32.4329 148.169 31.7328C141.276 30.9232 140.787 30.8745 140.774 30.9957ZM155.268 58.6312C155.263 58.6735 155.295 58.7121 155.339 58.7171C155.384 58.7221 155.424 58.6916 155.429 58.6494C155.433 58.6071 155.401 58.5685 155.357 58.5635C155.312 58.5586 155.272 58.589 155.268 58.6312Z" fill="#0A84DC"/>
</g>
<defs>
<filter id="filter0_d_164_50" x="0.368164" y="0.945801" width="265.357" height="305.676" filterUnits="userSpaceOnUse" color-interpolation-filters="sRGB">
<feFlood flood-opacity="0" result="BackgroundImageFix"/>
<feColorMatrix in="SourceAlpha" type="matrix" values="0 0 0 0 0 0 0 0 0 0 0 0 0 0 0 0 0 0 127 0" result="hardAlpha"/>
<feOffset dx="25" dy="10"/>
<feGaussianBlur stdDeviation="20"/>
<feComposite in2="hardAlpha" operator="out"/>
<feColorMatrix type="matrix" values="0 0 0 0 0.129412 0 0 0 0 0.321569 0 0 0 0 0.694118 0 0 0 1 0"/>
<feBlend mode="normal" in2="BackgroundImageFix" result="effect1_dropShadow_164_50"/>
<feBlend mode="normal" in="SourceGraphic" in2="effect1_dropShadow_164_50" result="shape"/>
</filter>
</defs>
</svg>
