<svg width="1062" height="1008" viewBox="0 0 1062 1008" fill="none" xmlns="http://www.w3.org/2000/svg">
<g filter="url(#filter0_f_162_33)">
<path d="M218.315 623.02L165.577 166.316H896.137L822.777 623.02H218.315Z" fill="#FAFCFF"/>
</g>
<path d="M515.934 102C437.198 102.369 148 520 148 520L515.934 772.5L913.5 521C913.5 521 594.67 101.632 515.934 102Z" fill="#20489F" fill-opacity="0.25" stroke="#3063D1" stroke-opacity="0.25" stroke-width="0.827362"/>
<rect x="196" y="178" width="669" height="761" rx="12.4104" fill="url(#paint0_linear_162_33)"/>
<rect x="359.228" y="220.922" width="341.7" height="26.4756" fill="url(#paint1_linear_162_33)"/>
<path d="M451.153 228.199L447.926 239.749H445.196L443.028 231.525L440.761 239.749L438.047 239.766L434.936 228.199H437.419L439.454 237.168L441.804 228.199H444.385L446.602 237.118L448.654 228.199H451.153ZM454.982 230.069V232.965H458.871V234.802H454.982V237.863H459.367V239.749H452.665V228.183H459.367V230.069H454.982ZM461.936 228.199H464.368L462.581 232.369H460.992L461.936 228.199ZM471.986 239.749L469.438 235.248H468.346V239.749H466.029V228.199H470.365C471.258 228.199 472.019 228.359 472.648 228.679C473.277 228.988 473.746 229.413 474.055 229.953C474.375 230.483 474.535 231.078 474.535 231.74C474.535 232.501 474.314 233.191 473.873 233.809C473.431 234.415 472.775 234.835 471.903 235.066L474.667 239.749H471.986ZM468.346 233.511H470.282C470.911 233.511 471.38 233.362 471.688 233.064C471.997 232.755 472.152 232.33 472.152 231.79C472.152 231.26 471.997 230.852 471.688 230.565C471.38 230.268 470.911 230.119 470.282 230.119H468.346V233.511ZM478.946 230.069V232.965H482.835V234.802H478.946V237.863H483.331V239.749H476.63V228.183H483.331V230.069H478.946ZM491.696 228.199V239.749H489.38V228.199H491.696ZM503.864 239.749H501.547L496.302 231.823V239.749H493.985V228.183H496.302L501.547 236.125V228.183H503.864V239.749ZM516.528 228.199L512.292 239.749H509.479L505.243 228.199H507.725L510.902 237.383L514.063 228.199H516.528ZM520.234 228.199V239.749H517.917V228.199H520.234ZM530.382 228.199V230.069H527.305V239.749H524.988V230.069H521.91V228.199H530.382ZM534.389 228.199V239.749H532.073V228.199H534.389ZM546.557 239.749H544.24L538.995 231.823V239.749H536.678V228.183H538.995L544.24 236.125V228.183H546.557V239.749ZM556.888 231.674C556.623 231.189 556.259 230.819 555.796 230.565C555.333 230.312 554.792 230.185 554.174 230.185C553.49 230.185 552.884 230.339 552.354 230.648C551.825 230.957 551.411 231.398 551.113 231.972C550.815 232.546 550.666 233.207 550.666 233.958C550.666 234.73 550.815 235.403 551.113 235.976C551.422 236.55 551.847 236.991 552.387 237.3C552.928 237.609 553.557 237.763 554.274 237.763C555.156 237.763 555.879 237.532 556.441 237.068C557.004 236.594 557.374 235.938 557.55 235.099H553.579V233.329H559.834V235.348C559.679 236.153 559.348 236.898 558.841 237.581C558.333 238.265 557.677 238.817 556.872 239.236C556.077 239.644 555.184 239.848 554.191 239.848C553.077 239.848 552.067 239.6 551.163 239.104C550.269 238.596 549.563 237.896 549.045 237.002C548.537 236.109 548.284 235.094 548.284 233.958C548.284 232.821 548.537 231.806 549.045 230.913C549.563 230.008 550.269 229.308 551.163 228.811C552.067 228.304 553.071 228.05 554.174 228.05C555.476 228.05 556.607 228.37 557.567 229.01C558.526 229.639 559.188 230.527 559.552 231.674H556.888ZM574.674 228.199L570.769 235.728V239.749H568.452V235.728L564.531 228.199H567.145L569.627 233.478L572.093 228.199H574.674ZM581.371 239.865C580.29 239.865 579.298 239.611 578.393 239.104C577.488 238.596 576.771 237.896 576.242 237.002C575.712 236.098 575.448 235.077 575.448 233.941C575.448 232.816 575.712 231.806 576.242 230.913C576.771 230.008 577.488 229.302 578.393 228.795C579.298 228.287 580.29 228.034 581.371 228.034C582.464 228.034 583.456 228.287 584.35 228.795C585.255 229.302 585.966 230.008 586.485 230.913C587.014 231.806 587.279 232.816 587.279 233.941C587.279 235.077 587.014 236.098 586.485 237.002C585.966 237.896 585.255 238.596 584.35 239.104C583.445 239.611 582.453 239.865 581.371 239.865ZM581.371 237.797C582.066 237.797 582.679 237.642 583.208 237.333C583.738 237.013 584.151 236.561 584.449 235.976C584.747 235.392 584.896 234.713 584.896 233.941C584.896 233.169 584.747 232.496 584.449 231.922C584.151 231.338 583.738 230.891 583.208 230.582C582.679 230.273 582.066 230.119 581.371 230.119C580.676 230.119 580.059 230.273 579.518 230.582C578.989 230.891 578.575 231.338 578.277 231.922C577.979 232.496 577.83 233.169 577.83 233.941C577.83 234.713 577.979 235.392 578.277 235.976C578.575 236.561 578.989 237.013 579.518 237.333C580.059 237.642 580.676 237.797 581.371 237.797ZM591.286 228.199V235.348C591.286 236.131 591.49 236.732 591.898 237.151C592.306 237.559 592.88 237.763 593.619 237.763C594.369 237.763 594.948 237.559 595.356 237.151C595.765 236.732 595.969 236.131 595.969 235.348V228.199H598.302V235.331C598.302 236.313 598.087 237.146 597.657 237.83C597.237 238.503 596.669 239.01 595.952 239.352C595.246 239.694 594.457 239.865 593.586 239.865C592.725 239.865 591.942 239.694 591.236 239.352C590.541 239.01 589.99 238.503 589.581 237.83C589.173 237.146 588.969 236.313 588.969 235.331V228.199H591.286ZM612.343 228.199V230.069H609.265V239.749H606.949V230.069H603.871V228.199H612.343ZM619.395 239.865C618.313 239.865 617.321 239.611 616.416 239.104C615.511 238.596 614.794 237.896 614.265 237.002C613.735 236.098 613.471 235.077 613.471 233.941C613.471 232.816 613.735 231.806 614.265 230.913C614.794 230.008 615.511 229.302 616.416 228.795C617.321 228.287 618.313 228.034 619.395 228.034C620.487 228.034 621.479 228.287 622.373 228.795C623.278 229.302 623.989 230.008 624.508 230.913C625.037 231.806 625.302 232.816 625.302 233.941C625.302 235.077 625.037 236.098 624.508 237.002C623.989 237.896 623.278 238.596 622.373 239.104C621.468 239.611 620.476 239.865 619.395 239.865ZM619.395 237.797C620.09 237.797 620.702 237.642 621.231 237.333C621.761 237.013 622.174 236.561 622.472 235.976C622.77 235.392 622.919 234.713 622.919 233.941C622.919 233.169 622.77 232.496 622.472 231.922C622.174 231.338 621.761 230.891 621.231 230.582C620.702 230.273 620.09 230.119 619.395 230.119C618.7 230.119 618.082 230.273 617.541 230.582C617.012 230.891 616.598 231.338 616.3 231.922C616.002 232.496 615.853 233.169 615.853 233.941C615.853 234.713 616.002 235.392 616.3 235.976C616.598 236.561 617.012 237.013 617.541 237.333C618.082 237.642 618.7 237.797 619.395 237.797Z" fill="#018BD2"/>
<g filter="url(#filter1_d_162_33)">
<path d="M314.464 321.397V263.627H325.232L329.87 293.573L330.263 296.639H330.42L330.813 293.573L335.45 263.627H346.218V321.397H338.358V282.648H337.887L337.572 285.084L332.542 321.397H328.14L323.11 285.084L322.796 282.648H322.324V321.397H314.464ZM350.767 321.397L359.492 263.627H369.867L378.591 321.397H370.339L368.767 309.607H360.592L359.02 321.397H350.767ZM361.771 300.647H367.588L365.151 281.233L364.915 278.168H364.444L364.208 281.233L361.771 300.647ZM383.085 321.397V263.627H391.574V313.537H402.814V321.397H383.085ZM405.265 321.397L413.989 263.627H424.365L433.089 321.397H424.836L423.264 309.607H415.09L413.518 321.397H405.265ZM416.269 300.647H422.085L419.649 281.233L419.413 278.168H418.941L418.705 281.233L416.269 300.647ZM437.583 321.397V263.627H448.351L452.988 293.573L453.381 296.639H453.538L453.931 293.573L458.569 263.627H469.337V321.397H461.477V282.648H461.005L460.691 285.084L455.661 321.397H451.259L446.229 285.084L445.914 282.648H445.443V321.397H437.583ZM487.782 321.397V263.627H496.271V282.884V283.827H496.585L496.978 282.884L503.58 263.627H512.305L504.524 282.648L513.327 321.397H504.602L498.943 295.067H498.707L496.271 300.961V321.397H487.782ZM517.257 321.397V263.627H536.671V272.351H525.745V287.914H533.605V296.403H525.745V312.673H536.671V321.397H517.257ZM541.355 321.397L550.08 263.627H560.455L569.18 321.397H560.927L559.355 309.607H551.18L549.608 321.397H541.355ZM552.359 300.647H558.176L555.739 281.233L555.503 278.168H555.032L554.796 281.233L552.359 300.647ZM573.673 321.397V263.627H582.162V282.884V283.827H582.476L582.869 282.884L589.472 263.627H598.196L590.415 282.648L599.218 321.397H590.493L584.834 295.067H584.598L582.162 300.961V321.397H573.673ZM603.148 321.397V263.627H611.637C616.719 263.627 620.466 265.042 622.876 267.871C625.287 270.675 626.492 274.814 626.492 280.29C626.492 283.539 625.916 286.355 624.763 288.739C623.636 291.097 622.261 292.826 620.636 293.927L626.413 321.397H617.925L613.13 297.032H611.637V321.397H603.148ZM611.637 289.172C613.209 289.172 614.453 288.831 615.37 288.15C616.287 287.442 616.942 286.447 617.335 285.163C617.728 283.879 617.925 282.36 617.925 280.604C617.925 277.853 617.466 275.744 616.549 274.277C615.658 272.784 614.021 272.037 611.637 272.037V289.172ZM629.473 321.397L638.197 263.627H648.572L657.297 321.397H649.044L647.472 309.607H639.297L637.725 321.397H629.473ZM640.476 300.647H646.293L643.856 281.233L643.62 278.168H643.149L642.913 281.233L640.476 300.647ZM661.79 321.397V263.627H670.436C673.371 263.627 675.899 264.151 678.021 265.199C680.17 266.221 681.82 267.832 682.973 270.033C684.152 272.233 684.741 275.076 684.741 278.561C684.741 281.338 684.375 283.761 683.641 285.831C682.934 287.901 681.545 289.591 679.475 290.901C681.571 292.054 683.078 293.888 683.995 296.403C684.912 298.892 685.37 301.774 685.37 305.049C685.37 308.271 684.846 311.114 683.798 313.577C682.776 316.039 681.257 317.965 679.239 319.354C677.248 320.716 674.786 321.397 671.851 321.397H661.79ZM670.279 312.987C672.847 312.987 674.537 312.227 675.349 310.708C676.161 309.162 676.567 306.961 676.567 304.105C676.567 301.197 676.161 298.997 675.349 297.503C674.537 295.984 672.847 295.224 670.279 295.224V312.987ZM670.279 287.442C672.663 287.442 674.301 286.787 675.192 285.477C676.109 284.167 676.567 282.229 676.567 279.661C676.567 277.067 676.096 275.155 675.152 273.923C674.235 272.666 672.611 272.037 670.279 272.037V287.442ZM688.652 321.397L697.377 263.627H707.752L716.477 321.397H708.224L706.652 309.607H698.477L696.905 321.397H688.652ZM699.656 300.647H705.473L703.036 281.233L702.8 278.168H702.329L702.093 281.233L699.656 300.647ZM720.97 321.397V263.627H728.909L736.769 293.73L737.476 296.403H737.948V263.627H745.729V321.397H738.576L729.931 291.294L729.223 288.621H728.752V321.397H720.97Z" fill="white"/>
</g>
<g filter="url(#filter2_d_162_33)">
<path d="M416.621 348.422C416.621 349.039 416.472 349.618 416.174 350.159C415.887 350.7 415.43 351.135 414.801 351.466C414.183 351.797 413.4 351.963 412.451 351.963H410.515V356.397H408.198V344.847H412.451C413.345 344.847 414.106 345.002 414.735 345.311C415.363 345.62 415.832 346.044 416.141 346.585C416.461 347.125 416.621 347.738 416.621 348.422ZM412.352 350.093C412.992 350.093 413.466 349.949 413.775 349.663C414.084 349.365 414.238 348.951 414.238 348.422C414.238 347.296 413.609 346.734 412.352 346.734H410.515V350.093H412.352ZM420.582 346.717V349.613H424.471V351.45H420.582V354.511H424.967V356.397H418.266V344.831H424.967V346.717H420.582ZM436.951 356.397H434.635L429.389 348.471V356.397H427.073V344.831H429.389L434.635 352.773V344.831H436.951V356.397ZM447.283 348.322C447.018 347.837 446.654 347.467 446.19 347.214C445.727 346.96 445.187 346.833 444.569 346.833C443.885 346.833 443.278 346.987 442.749 347.296C442.219 347.605 441.805 348.047 441.508 348.62C441.21 349.194 441.061 349.856 441.061 350.606C441.061 351.378 441.21 352.051 441.508 352.625C441.816 353.198 442.241 353.639 442.782 353.948C443.322 354.257 443.951 354.412 444.668 354.412C445.551 354.412 446.273 354.18 446.836 353.717C447.398 353.242 447.768 352.586 447.944 351.748H443.973V349.977H450.228V351.996C450.074 352.801 449.743 353.546 449.235 354.23C448.728 354.914 448.071 355.465 447.266 355.884C446.472 356.293 445.578 356.497 444.585 356.497C443.471 356.497 442.462 356.248 441.557 355.752C440.664 355.245 439.958 354.544 439.439 353.65C438.932 352.757 438.678 351.742 438.678 350.606C438.678 349.47 438.932 348.455 439.439 347.561C439.958 346.657 440.664 345.956 441.557 345.46C442.462 344.952 443.466 344.698 444.569 344.698C445.871 344.698 447.001 345.018 447.961 345.658C448.921 346.287 449.583 347.175 449.947 348.322H447.283ZM454.225 344.847V351.996C454.225 352.779 454.429 353.38 454.838 353.799C455.246 354.208 455.819 354.412 456.559 354.412C457.309 354.412 457.888 354.208 458.296 353.799C458.704 353.38 458.908 352.779 458.908 351.996V344.847H461.241V351.979C461.241 352.961 461.026 353.794 460.596 354.478C460.177 355.151 459.609 355.658 458.892 356C458.186 356.342 457.397 356.513 456.525 356.513C455.665 356.513 454.882 356.342 454.176 356C453.481 355.658 452.929 355.151 452.521 354.478C452.113 353.794 451.909 352.961 451.909 351.979V344.847H454.225ZM469.437 356.397L466.888 351.896H465.796V356.397H463.48V344.847H467.815C468.709 344.847 469.47 345.007 470.099 345.327C470.727 345.636 471.196 346.061 471.505 346.601C471.825 347.131 471.985 347.727 471.985 348.388C471.985 349.15 471.764 349.839 471.323 350.457C470.882 351.064 470.225 351.483 469.354 351.714L472.117 356.397H469.437ZM465.796 350.159H467.732C468.361 350.159 468.83 350.01 469.139 349.712C469.448 349.403 469.602 348.979 469.602 348.438C469.602 347.909 469.448 347.5 469.139 347.214C468.83 346.916 468.361 346.767 467.732 346.767H465.796V350.159ZM476.364 344.847V351.996C476.364 352.779 476.568 353.38 476.976 353.799C477.384 354.208 477.958 354.412 478.697 354.412C479.447 354.412 480.026 354.208 480.434 353.799C480.843 353.38 481.047 352.779 481.047 351.996V344.847H483.38V351.979C483.38 352.961 483.165 353.794 482.734 354.478C482.315 355.151 481.747 355.658 481.03 356C480.324 356.342 479.535 356.513 478.664 356.513C477.803 356.513 477.02 356.342 476.314 356C475.619 355.658 475.068 355.151 474.659 354.478C474.251 353.794 474.047 352.961 474.047 351.979V344.847H476.364ZM489.606 356.513C488.801 356.513 488.073 356.375 487.422 356.099C486.782 355.824 486.274 355.427 485.899 354.908C485.524 354.39 485.331 353.777 485.32 353.071H487.802C487.835 353.546 488.001 353.921 488.299 354.197C488.608 354.472 489.027 354.61 489.556 354.61C490.097 354.61 490.522 354.483 490.83 354.23C491.139 353.965 491.294 353.623 491.294 353.204C491.294 352.862 491.189 352.58 490.979 352.36C490.77 352.139 490.505 351.968 490.185 351.847C489.876 351.714 489.446 351.571 488.894 351.417C488.144 351.196 487.532 350.981 487.058 350.771C486.594 350.551 486.192 350.225 485.85 349.795C485.519 349.354 485.353 348.769 485.353 348.041C485.353 347.357 485.524 346.761 485.866 346.254C486.208 345.746 486.688 345.36 487.306 345.096C487.924 344.82 488.63 344.682 489.424 344.682C490.615 344.682 491.581 344.974 492.32 345.559C493.07 346.133 493.484 346.938 493.561 347.975H491.012C490.99 347.578 490.819 347.252 490.5 346.999C490.191 346.734 489.777 346.601 489.258 346.601C488.806 346.601 488.442 346.717 488.166 346.949C487.902 347.181 487.769 347.517 487.769 347.958C487.769 348.267 487.869 348.526 488.067 348.736C488.277 348.935 488.53 349.1 488.828 349.232C489.137 349.354 489.567 349.497 490.119 349.663C490.869 349.883 491.481 350.104 491.956 350.325C492.43 350.545 492.838 350.876 493.18 351.317C493.522 351.759 493.693 352.338 493.693 353.055C493.693 353.673 493.533 354.246 493.213 354.776C492.893 355.305 492.425 355.73 491.807 356.05C491.189 356.359 490.455 356.513 489.606 356.513ZM503.682 344.847C504.895 344.847 505.96 345.085 506.876 345.559C507.802 346.033 508.514 346.712 509.01 347.594C509.518 348.466 509.771 349.481 509.771 350.639C509.771 351.797 509.518 352.812 509.01 353.684C508.514 354.544 507.802 355.211 506.876 355.686C505.96 356.16 504.895 356.397 503.682 356.397H499.644V344.847H503.682ZM503.599 354.428C504.813 354.428 505.75 354.097 506.412 353.435C507.074 352.773 507.405 351.841 507.405 350.639C507.405 349.436 507.074 348.499 506.412 347.826C505.75 347.142 504.813 346.8 503.599 346.8H501.961V354.428H503.599ZM516.867 356.513C515.786 356.513 514.793 356.259 513.888 355.752C512.984 355.245 512.267 354.544 511.737 353.65C511.208 352.746 510.943 351.726 510.943 350.589C510.943 349.464 511.208 348.455 511.737 347.561C512.267 346.657 512.984 345.951 513.888 345.443C514.793 344.936 515.786 344.682 516.867 344.682C517.959 344.682 518.952 344.936 519.845 345.443C520.75 345.951 521.461 346.657 521.98 347.561C522.509 348.455 522.774 349.464 522.774 350.589C522.774 351.726 522.509 352.746 521.98 353.65C521.461 354.544 520.75 355.245 519.845 355.752C518.941 356.259 517.948 356.513 516.867 356.513ZM516.867 354.445C517.562 354.445 518.174 354.29 518.703 353.981C519.233 353.662 519.647 353.209 519.945 352.625C520.242 352.04 520.391 351.361 520.391 350.589C520.391 349.817 520.242 349.144 519.945 348.57C519.647 347.986 519.233 347.539 518.703 347.23C518.174 346.921 517.562 346.767 516.867 346.767C516.172 346.767 515.554 346.921 515.013 347.23C514.484 347.539 514.07 347.986 513.772 348.57C513.475 349.144 513.326 349.817 513.326 350.589C513.326 351.361 513.475 352.04 513.772 352.625C514.07 353.209 514.484 353.662 515.013 353.981C515.554 354.29 516.172 354.445 516.867 354.445ZM528.486 356.513C527.68 356.513 526.952 356.375 526.301 356.099C525.661 355.824 525.154 355.427 524.779 354.908C524.404 354.39 524.211 353.777 524.2 353.071H526.682C526.715 353.546 526.88 353.921 527.178 354.197C527.487 354.472 527.906 354.61 528.436 354.61C528.976 354.61 529.401 354.483 529.71 354.23C530.019 353.965 530.173 353.623 530.173 353.204C530.173 352.862 530.069 352.58 529.859 352.36C529.649 352.139 529.385 351.968 529.065 351.847C528.756 351.714 528.326 351.571 527.774 351.417C527.024 351.196 526.412 350.981 525.937 350.771C525.474 350.551 525.071 350.225 524.729 349.795C524.398 349.354 524.233 348.769 524.233 348.041C524.233 347.357 524.404 346.761 524.746 346.254C525.088 345.746 525.568 345.36 526.185 345.096C526.803 344.82 527.509 344.682 528.303 344.682C529.495 344.682 530.46 344.974 531.199 345.559C531.949 346.133 532.363 346.938 532.44 347.975H529.892C529.87 347.578 529.699 347.252 529.379 346.999C529.07 346.734 528.656 346.601 528.138 346.601C527.686 346.601 527.322 346.717 527.046 346.949C526.781 347.181 526.649 347.517 526.649 347.958C526.649 348.267 526.748 348.526 526.947 348.736C527.156 348.935 527.41 349.1 527.708 349.232C528.017 349.354 528.447 349.497 528.998 349.663C529.749 349.883 530.361 350.104 530.835 350.325C531.31 350.545 531.718 350.876 532.06 351.317C532.402 351.759 532.573 352.338 532.573 353.055C532.573 353.673 532.413 354.246 532.093 354.776C531.773 355.305 531.304 355.73 530.686 356.05C530.069 356.359 529.335 356.513 528.486 356.513ZM534.018 350.606C534.018 349.47 534.272 348.455 534.78 347.561C535.298 346.657 535.999 345.956 536.881 345.46C537.775 344.952 538.773 344.698 539.876 344.698C541.167 344.698 542.298 345.029 543.268 345.691C544.239 346.353 544.918 347.269 545.304 348.438H542.64C542.375 347.887 542 347.473 541.514 347.197C541.04 346.921 540.488 346.783 539.86 346.783C539.187 346.783 538.586 346.943 538.056 347.263C537.538 347.572 537.129 348.013 536.832 348.587C536.545 349.161 536.401 349.834 536.401 350.606C536.401 351.367 536.545 352.04 536.832 352.625C537.129 353.198 537.538 353.645 538.056 353.965C538.586 354.274 539.187 354.428 539.86 354.428C540.488 354.428 541.04 354.29 541.514 354.015C542 353.728 542.375 353.309 542.64 352.757H545.304C544.918 353.937 544.239 354.858 543.268 355.52C542.309 356.171 541.178 356.497 539.876 356.497C538.773 356.497 537.775 356.248 536.881 355.752C535.999 355.245 535.298 354.544 534.78 353.65C534.272 352.757 534.018 351.742 534.018 350.606ZM552.644 356.513C551.563 356.513 550.57 356.259 549.665 355.752C548.761 355.245 548.044 354.544 547.514 353.65C546.985 352.746 546.72 351.726 546.72 350.589C546.72 349.464 546.985 348.455 547.514 347.561C548.044 346.657 548.761 345.951 549.665 345.443C550.57 344.936 551.563 344.682 552.644 344.682C553.736 344.682 554.729 344.936 555.622 345.443C556.527 345.951 557.238 346.657 557.757 347.561C558.286 348.455 558.551 349.464 558.551 350.589C558.551 351.726 558.286 352.746 557.757 353.65C557.238 354.544 556.527 355.245 555.622 355.752C554.718 356.259 553.725 356.513 552.644 356.513ZM552.644 354.445C553.339 354.445 553.951 354.29 554.48 353.981C555.01 353.662 555.424 353.209 555.721 352.625C556.019 352.04 556.168 351.361 556.168 350.589C556.168 349.817 556.019 349.144 555.721 348.57C555.424 347.986 555.01 347.539 554.48 347.23C553.951 346.921 553.339 346.767 552.644 346.767C551.949 346.767 551.331 346.921 550.79 347.23C550.261 347.539 549.847 347.986 549.549 348.57C549.252 349.144 549.103 349.817 549.103 350.589C549.103 351.361 549.252 352.04 549.549 352.625C549.847 353.209 550.261 353.662 550.79 353.981C551.331 354.29 551.949 354.445 552.644 354.445ZM572.867 344.847V356.397H570.55V348.885L567.456 356.397H565.702L562.591 348.885V356.397H560.275V344.847H562.906L566.579 353.435L570.253 344.847H572.867ZM579.564 353.783C580.623 352.9 581.467 352.167 582.095 351.582C582.724 350.986 583.248 350.369 583.667 349.729C584.086 349.089 584.296 348.46 584.296 347.842C584.296 347.28 584.164 346.839 583.899 346.519C583.634 346.199 583.226 346.039 582.674 346.039C582.123 346.039 581.698 346.226 581.4 346.601C581.102 346.965 580.948 347.467 580.937 348.107H578.687C578.731 346.783 579.122 345.78 579.861 345.096C580.612 344.412 581.56 344.07 582.708 344.07C583.965 344.07 584.93 344.406 585.603 345.079C586.276 345.741 586.613 346.618 586.613 347.71C586.613 348.57 586.381 349.392 585.918 350.176C585.454 350.959 584.925 351.643 584.329 352.227C583.733 352.801 582.956 353.496 581.996 354.312H586.877V356.232H578.703V354.511L579.564 353.783ZM589.065 353.783C590.124 352.9 590.968 352.167 591.597 351.582C592.226 350.986 592.75 350.369 593.169 349.729C593.588 349.089 593.798 348.46 593.798 347.842C593.798 347.28 593.665 346.839 593.401 346.519C593.136 346.199 592.728 346.039 592.176 346.039C591.625 346.039 591.2 346.226 590.902 346.601C590.604 346.965 590.45 347.467 590.439 348.107H588.188C588.232 346.783 588.624 345.78 589.363 345.096C590.113 344.412 591.062 344.07 592.209 344.07C593.467 344.07 594.432 344.406 595.105 345.079C595.778 345.741 596.114 346.618 596.114 347.71C596.114 348.57 595.883 349.392 595.419 350.176C594.956 350.959 594.427 351.643 593.831 352.227C593.235 352.801 592.457 353.496 591.498 354.312H596.379V356.232H588.205V354.511L589.065 353.783ZM600.635 353.965L598.699 358.615H597.21L598.286 353.965H600.635ZM606.711 353.783C607.77 352.9 608.614 352.167 609.243 351.582C609.872 350.986 610.396 350.369 610.815 349.729C611.234 349.089 611.444 348.46 611.444 347.842C611.444 347.28 611.312 346.839 611.047 346.519C610.782 346.199 610.374 346.039 609.822 346.039C609.271 346.039 608.846 346.226 608.548 346.601C608.25 346.965 608.096 347.467 608.085 348.107H605.834C605.878 346.783 606.27 345.78 607.009 345.096C607.759 344.412 608.708 344.07 609.855 344.07C611.113 344.07 612.078 344.406 612.751 345.079C613.424 345.741 613.76 346.618 613.76 347.71C613.76 348.57 613.529 349.392 613.066 350.176C612.602 350.959 612.073 351.643 611.477 352.227C610.881 352.801 610.104 353.496 609.144 354.312H614.025V356.232H605.851V354.511L606.711 353.783ZM615.518 347.511C615.573 346.408 615.959 345.559 616.676 344.963C617.405 344.356 618.359 344.053 619.539 344.053C620.344 344.053 621.034 344.197 621.608 344.483C622.181 344.759 622.611 345.14 622.898 345.625C623.196 346.099 623.345 346.64 623.345 347.247C623.345 347.942 623.163 348.532 622.799 349.017C622.446 349.492 622.021 349.812 621.525 349.977V350.043C622.165 350.242 622.661 350.595 623.014 351.102C623.378 351.61 623.56 352.261 623.56 353.055C623.56 353.717 623.406 354.307 623.097 354.825C622.799 355.344 622.352 355.752 621.756 356.05C621.172 356.337 620.466 356.48 619.638 356.48C618.392 356.48 617.377 356.166 616.594 355.537C615.81 354.908 615.397 353.981 615.353 352.757H617.603C617.625 353.297 617.807 353.733 618.149 354.064C618.502 354.384 618.982 354.544 619.589 354.544C620.151 354.544 620.582 354.39 620.879 354.081C621.188 353.761 621.343 353.353 621.343 352.856C621.343 352.194 621.133 351.72 620.714 351.433C620.295 351.146 619.644 351.003 618.761 351.003H618.282V349.1H618.761C620.328 349.1 621.111 348.576 621.111 347.528C621.111 347.054 620.968 346.684 620.681 346.419C620.405 346.155 620.002 346.022 619.473 346.022C618.954 346.022 618.552 346.166 618.265 346.452C617.989 346.728 617.829 347.081 617.785 347.511H615.518ZM628.187 353.965L626.251 358.615H624.762L625.838 353.965H628.187ZM634.263 353.783C635.322 352.9 636.166 352.167 636.795 351.582C637.424 350.986 637.948 350.369 638.367 349.729C638.786 349.089 638.996 348.46 638.996 347.842C638.996 347.28 638.863 346.839 638.599 346.519C638.334 346.199 637.926 346.039 637.374 346.039C636.822 346.039 636.398 346.226 636.1 346.601C635.802 346.965 635.648 347.467 635.637 348.107H633.386C633.43 346.783 633.822 345.78 634.561 345.096C635.311 344.412 636.26 344.07 637.407 344.07C638.665 344.07 639.63 344.406 640.303 345.079C640.976 345.741 641.312 346.618 641.312 347.71C641.312 348.57 641.081 349.392 640.617 350.176C640.154 350.959 639.624 351.643 639.029 352.227C638.433 352.801 637.655 353.496 636.696 354.312H641.577V356.232H633.403V354.511L634.263 353.783ZM642.938 354.048V352.227L648.348 344.483H651.046V352.029H652.502V354.048H651.046V356.397H648.729V354.048H642.938ZM648.878 346.965L645.486 352.029H648.878V346.965Z" fill="white"/>
</g>
<path d="M668.083 683.544H392.158L196.487 870.941L148.5 1006.21H912.155L863.754 870.114L668.083 683.544Z" fill="#2152B1" stroke="#3063D1" stroke-width="1.65472"/>
<path d="M253.989 551.166L148.5 528V1006.63L196.901 870.528L392.572 683.544L253.989 551.166Z" fill="#2152B1" stroke="#3063D1" stroke-width="1.65472"/>
<path d="M807.08 551.166L912.568 528V1006.63L864.168 870.528L668.497 683.544L807.08 551.166Z" fill="#2152B1" stroke="#3063D1" stroke-width="1.65472"/>
<defs>
<filter id="filter0_f_162_33" x="0.10434" y="0.843597" width="1061.5" height="787.648" filterUnits="userSpaceOnUse" color-interpolation-filters="sRGB">
<feFlood flood-opacity="0" result="BackgroundImageFix"/>
<feBlend mode="normal" in="SourceGraphic" in2="BackgroundImageFix" result="shape"/>
<feGaussianBlur stdDeviation="82.7362" result="effect1_foregroundBlur_162_33"/>
</filter>
<filter id="filter1_d_162_33" x="311.155" y="263.627" width="437.884" height="64.3894" filterUnits="userSpaceOnUse" color-interpolation-filters="sRGB">
<feFlood flood-opacity="0" result="BackgroundImageFix"/>
<feColorMatrix in="SourceAlpha" type="matrix" values="0 0 0 0 0 0 0 0 0 0 0 0 0 0 0 0 0 0 127 0" result="hardAlpha"/>
<feOffset dy="3.30945"/>
<feGaussianBlur stdDeviation="1.65472"/>
<feComposite in2="hardAlpha" operator="out"/>
<feColorMatrix type="matrix" values="0 0 0 0 0 0 0 0 0 0 0 0 0 0 0 0 0 0 0.25 0"/>
<feBlend mode="normal" in2="BackgroundImageFix" result="effect1_dropShadow_162_33"/>
<feBlend mode="normal" in="SourceGraphic" in2="effect1_dropShadow_162_33" result="shape"/>
</filter>
<filter id="filter2_d_162_33" x="404.889" y="344.053" width="250.922" height="21.1804" filterUnits="userSpaceOnUse" color-interpolation-filters="sRGB">
<feFlood flood-opacity="0" result="BackgroundImageFix"/>
<feColorMatrix in="SourceAlpha" type="matrix" values="0 0 0 0 0 0 0 0 0 0 0 0 0 0 0 0 0 0 127 0" result="hardAlpha"/>
<feOffset dy="3.30945"/>
<feGaussianBlur stdDeviation="1.65472"/>
<feComposite in2="hardAlpha" operator="out"/>
<feColorMatrix type="matrix" values="0 0 0 0 0 0 0 0 0 0 0 0 0 0 0 0 0 0 0.25 0"/>
<feBlend mode="normal" in2="BackgroundImageFix" result="effect1_dropShadow_162_33"/>
<feBlend mode="normal" in="SourceGraphic" in2="effect1_dropShadow_162_33" result="shape"/>
</filter>
<linearGradient id="paint0_linear_162_33" x1="530.5" y1="178" x2="530.5" y2="939" gradientUnits="userSpaceOnUse">
<stop stop-color="#36ABF9"/>
<stop offset="0.519195" stop-color="#8ED8FF"/>
<stop offset="1" stop-color="#9EE1FE"/>
</linearGradient>
<linearGradient id="paint1_linear_162_33" x1="359.228" y1="234.16" x2="700.928" y2="234.16" gradientUnits="userSpaceOnUse">
<stop stop-color="#018BD2" stop-opacity="0"/>
<stop offset="0.0913462" stop-color="white"/>
<stop offset="0.9" stop-color="white"/>
<stop offset="1" stop-color="#018BD2" stop-opacity="0"/>
</linearGradient>
</defs>
</svg>
