<svg width="1062" height="1008" viewBox="0 0 1062 1008" fill="none" xmlns="http://www.w3.org/2000/svg">
<g filter="url(#filter0_f_162_33)">
<path d="M218.315 623.02L165.577 166.316H896.137L822.777 623.02H218.315Z" fill="#FAFCFF"/>
</g>
<path d="M515.934 102C437.198 102.369 148 520 148 520L515.934 772.5L913.5 521C913.5 521 594.67 101.632 515.934 102Z" fill="#20489F" fill-opacity="0.25" stroke="#3063D1" stroke-opacity="0.25" stroke-width="0.827362"/>
<rect x="196" y="178" width="669" height="761" rx="12.4104" fill="url(#paint0_linear_162_33)"/>
<rect x="359.228" y="220.922" width="341.7" height="26.4756" fill="url(#paint1_linear_162_33)"/>
<path d="M451.153 228.199L447.926 239.749H445.196L443.028 231.525L440.761 239.749L438.047 239.766L434.936 228.199H437.419L439.454 237.168L441.804 228.199H444.385L446.602 237.118L448.654 228.199H451.153ZM454.982 230.069V232.965H458.871V234.802H454.982V237.863H459.367V239.749H452.665V228.183H459.367V230.069H454.982ZM461.936 228.199H464.368L462.581 232.369H460.992L461.936 228.199ZM471.986 239.749L469.438 235.248H468.346V239.749H466.029V228.199H470.365C471.258 228.199 472.019 228.359 472.648 228.679C473.277 228.988 473.746 229.413 474.055 229.953C474.375 230.483 474.535 231.078 474.535 231.74C474.535 232.501 474.314 233.191 473.873 233.809C473.431 234.415 472.775 234.835 471.903 235.066L474.667 239.749H471.986ZM468.346 233.511H470.282C470.911 233.511 471.38 233.362 471.688 233.064C471.997 232.755 472.152 232.33 472.152 231.79C472.152 231.26 471.997 230.852 471.688 230.565C471.38 230.268 470.911 230.119 470.282 230.119H468.346V233.511ZM478.946 230.069V232.965H482.835V234.802H478.946V237.863H483.331V239.749H476.63V228.183H483.331V230.069H478.946ZM491.696 228.199V239.749H489.38V228.199H491.696ZM503.864 239.749H501.547L496.302 231.823V239.749H493.985V228.183H496.302L501.547 236.125V228.183H503.864V239.749ZM516.528 228.199L512.292 239.749H509.479L505.243 228.199H507.725L510.902 237.383L514.063 228.199H516.528ZM520.234 228.199V239.749H517.917V228.199H520.234ZM530.382 228.199V230.069H527.305V239.749H524.988V230.069H521.91V228.199H530.382ZM534.389 228.199V239.749H532.073V228.199H534.389ZM546.557 239.749H544.24L538.995 231.823V239.749H536.678V228.183H538.995L544.24 236.125V228.183H546.557V239.749ZM556.888 231.674C556.623 231.189 556.259 230.819 555.796 230.565C555.333 230.312 554.792 230.185 554.174 230.185C553.49 230.185 552.884 230.339 552.354 230.648C551.825 230.957 551.411 231.398 551.113 231.972C550.815 232.546 550.666 233.207 550.666 233.958C550.666 234.73 550.815 235.403 551.113 235.976C551.422 236.55 551.847 236.991 552.387 237.3C552.928 237.609 553.557 237.763 554.274 237.763C555.156 237.763 555.879 237.532 556.441 237.068C557.004 236.594 557.374 235.938 557.55 235.099H553.579V233.329H559.834V235.348C559.679 236.153 559.348 236.898 558.841 237.581C558.333 238.265 557.677 238.817 556.872 239.236C556.077 239.644 555.184 239.848 554.191 239.848C553.077 239.848 552.067 239.6 551.163 239.104C550.269 238.596 549.563 237.896 549.045 237.002C548.537 236.109 548.284 235.094 548.284 233.958C548.284 232.821 548.537 231.806 549.045 230.913C549.563 230.008 550.269 229.308 551.163 228.811C552.067 228.304 553.071 228.05 554.174 228.05C555.476 228.05 556.607 228.37 557.567 229.01C558.526 229.639 559.188 230.527 559.552 231.674H556.888ZM574.674 228.199L570.769 235.728V239.749H568.452V235.728L564.531 228.199H567.145L569.627 233.478L572.093 228.199H574.674ZM581.371 239.865C580.29 239.865 579.298 239.611 578.393 239.104C577.488 238.596 576.771 237.896 576.242 237.002C575.712 236.098 575.448 235.077 575.448 233.941C575.448 232.816 575.712 231.806 576.242 230.913C576.771 230.008 577.488 229.302 578.393 228.795C579.298 228.287 580.29 228.034 581.371 228.034C582.464 228.034 583.456 228.287 584.35 228.795C585.255 229.302 585.966 230.008 586.485 230.913C587.014 231.806 587.279 232.816 587.279 233.941C587.279 235.077 587.014 236.098 586.485 237.002C585.966 237.896 585.255 238.596 584.35 239.104C583.445 239.611 582.453 239.865 581.371 239.865ZM581.371 237.797C582.066 237.797 582.679 237.642 583.208 237.333C583.738 237.013 584.151 236.561 584.449 235.976C584.747 235.392 584.896 234.713 584.896 233.941C584.896 233.169 584.747 232.496 584.449 231.922C584.151 231.338 583.738 230.891 583.208 230.582C582.679 230.273 582.066 230.119 581.371 230.119C580.676 230.119 580.059 230.273 579.518 230.582C578.989 230.891 578.575 231.338 578.277 231.922C577.979 232.496 577.83 233.169 577.83 233.941C577.83 234.713 577.979 235.392 578.277 235.976C578.575 236.561 578.989 237.013 579.518 237.333C580.059 237.642 580.676 237.797 581.371 237.797ZM591.286 228.199V235.348C591.286 236.131 591.49 236.732 591.898 237.151C592.306 237.559 592.88 237.763 593.619 237.763C594.369 237.763 594.948 237.559 595.356 237.151C595.765 236.732 595.969 236.131 595.969 235.348V228.199H598.302V235.331C598.302 236.313 598.087 237.146 597.657 237.83C597.237 238.503 596.669 239.01 595.952 239.352C595.246 239.694 594.457 239.865 593.586 239.865C592.725 239.865 591.942 239.694 591.236 239.352C590.541 239.01 589.99 238.503 589.581 237.83C589.173 237.146 588.969 236.313 588.969 235.331V228.199H591.286ZM612.343 228.199V230.069H609.265V239.749H606.949V230.069H603.871V228.199H612.343ZM619.395 239.865C618.313 239.865 617.321 239.611 616.416 239.104C615.511 238.596 614.794 237.896 614.265 237.002C613.735 236.098 613.471 235.077 613.471 233.941C613.471 232.816 613.735 231.806 614.265 230.913C614.794 230.008 615.511 229.302 616.416 228.795C617.321 228.287 618.313 228.034 619.395 228.034C620.487 228.034 621.479 228.287 622.373 228.795C623.278 229.302 623.989 230.008 624.508 230.913C625.037 231.806 625.302 232.816 625.302 233.941C625.302 235.077 625.037 236.098 624.508 237.002C623.989 237.896 623.278 238.596 622.373 239.104C621.468 239.611 620.476 239.865 619.395 239.865ZM619.395 237.797C620.09 237.797 620.702 237.642 621.231 237.333C621.761 237.013 622.174 236.561 622.472 235.976C622.77 235.392 622.919 234.713 622.919 233.941C622.919 233.169 622.77 232.496 622.472 231.922C622.174 231.338 621.761 230.891 621.231 230.582C620.702 230.273 620.09 230.119 619.395 230.119C618.7 230.119 618.082 230.273 617.541 230.582C617.012 230.891 616.598 231.338 616.3 231.922C616.002 232.496 615.853 233.169 615.853 233.941C615.853 234.713 616.002 235.392 616.3 235.976C616.598 236.561 617.012 237.013 617.541 237.333C618.082 237.642 618.7 237.797 619.395 237.797Z" fill="#018BD2"/>
<g filter="url(#filter1_d_162_33)">
<path d="M314.464 321.397V263.627H325.232L329.87 293.573L330.263 296.639H330.42L330.813 293.573L335.45 263.627H346.218V321.397H338.358V282.648H337.887L337.572 285.084L332.542 321.397H328.14L323.11 285.084L322.796 282.648H322.324V321.397H314.464ZM350.767 321.397L359.492 263.627H369.867L378.591 321.397H370.339L368.767 309.607H360.592L359.02 321.397H350.767ZM361.771 300.647H367.588L365.151 281.233L364.915 278.168H364.444L364.208 281.233L361.771 300.647ZM383.085 321.397V263.627H391.574V313.537H402.814V321.397H383.085ZM405.265 321.397L413.989 263.627H424.365L433.089 321.397H424.836L423.264 309.607H415.09L413.518 321.397H405.265ZM416.269 300.647H422.085L419.649 281.233L419.413 278.168H418.941L418.705 281.233L416.269 300.647ZM437.583 321.397V263.627H448.351L452.988 293.573L453.381 296.639H453.538L453.931 293.573L458.569 263.627H469.337V321.397H461.477V282.648H461.005L460.691 285.084L455.661 321.397H451.259L446.229 285.084L445.914 282.648H445.443V321.397H437.583ZM487.782 321.397V263.627H496.271V282.884V283.827H496.585L496.978 282.884L503.58 263.627H512.305L504.524 282.648L513.327 321.397H504.602L498.943 295.067H498.707L496.271 300.961V321.397H487.782ZM517.257 321.397V263.627H536.671V272.351H525.745V287.914H533.605V296.403H525.745V312.673H536.671V321.397H517.257ZM541.355 321.397L550.08 263.627H560.455L569.18 321.397H560.927L559.355 309.607H551.18L549.608 321.397H541.355ZM552.359 300.647H558.176L555.739 281.233L555.503 278.168H555.032L554.796 281.233L552.359 300.647ZM573.673 321.397V263.627H582.162V282.884V283.827H582.476L582.869 282.884L589.472 263.627H598.196L590.415 282.648L599.218 321.397H590.493L584.834 295.067H584.598L582.162 300.961V321.397H573.673ZM603.148 321.397V263.627H611.637C616.719 263.627 620.466 265.042 622.876 267.871C625.287 270.675 626.492 274.814 626.492 280.29C626.492 283.539 625.916 286.355 624.763 288.739C623.636 291.097 622.261 292.826 620.636 293.927L626.413 321.397H617.925L613.13 297.032H611.637V321.397H603.148ZM611.637 289.172C613.209 289.172 614.453 288.831 615.37 288.15C616.287 287.442 616.942 286.447 617.335 285.163C617.728 283.879 617.925 282.36 617.925 280.604C617.925 277.853 617.466 275.744 616.549 274.277C615.658 272.784 614.021 272.037 611.637 272.037V289.172ZM629.473 321.397L638.197 263.627H648.572L657.297 321.397H649.044L647.472 309.607H639.297L637.725 321.397H629.473ZM640.476 300.647H646.293L643.856 281.233L643.62 278.168H643.149L642.913 281.233L640.476 300.647ZM661.79 321.397V263.627H670.436C673.371 263.627 675.899 264.151 678.021 265.199C680.17 266.221 681.82 267.832 682.973 270.033C684.152 272.233 684.741 275.076 684.741 278.561C684.741 281.338 684.375 283.761 683.641 285.831C682.934 287.901 681.545 289.591 679.475 290.901C681.571 292.054 683.078 293.888 683.995 296.403C684.912 298.892 685.37 301.774 685.37 305.049C685.37 308.271 684.846 311.114 683.798 313.577C682.776 316.039 681.257 317.965 679.239 319.354C677.248 320.716 674.786 321.397 671.851 321.397H661.79ZM670.279 312.987C672.847 312.987 674.537 312.227 675.349 310.708C676.161 309.162 676.567 306.961 676.567 304.105C676.567 301.197 676.161 298.997 675.349 297.503C674.537 295.984 672.847 295.224 670.279 295.224V312.987ZM670.279 287.442C672.663 287.442 674.301 286.787 675.192 285.477C676.109 284.167 676.567 282.229 676.567 279.661C676.567 277.067 676.096 275.155 675.152 273.923C674.235 272.666 672.611 272.037 670.279 272.037V287.442ZM688.652 321.397L697.377 263.627H707.752L716.477 321.397H708.224L706.652 309.607H698.477L696.905 321.397H688.652ZM699.656 300.647H705.473L703.036 281.233L702.8 278.168H702.329L702.093 281.233L699.656 300.647ZM720.97 321.397V263.627H728.909L736.769 293.73L737.476 296.403H737.948V263.627H745.729V321.397H738.576L729.931 291.294L729.223 288.621H728.752V321.397H720.97Z" fill="white"/>
</g>
<g filter="url(#filter2_d_162_33)">
<path d="M426.869 344.847V346.717H423.791V356.397H421.475V346.717H418.397V344.847H426.869ZM433.921 356.513C432.839 356.513 431.847 356.259 430.942 355.752C430.037 355.245 429.32 354.544 428.791 353.65C428.261 352.746 427.997 351.726 427.997 350.589C427.997 349.464 428.261 348.455 428.791 347.561C429.32 346.657 430.037 345.951 430.942 345.443C431.847 344.936 432.839 344.682 433.921 344.682C435.013 344.682 436.005 344.936 436.899 345.443C437.804 345.951 438.515 346.657 439.034 347.561C439.563 348.455 439.828 349.464 439.828 350.589C439.828 351.726 439.563 352.746 439.034 353.65C438.515 354.544 437.804 355.245 436.899 355.752C435.994 356.259 435.002 356.513 433.921 356.513ZM433.921 354.445C434.616 354.445 435.228 354.29 435.757 353.981C436.287 353.662 436.7 353.209 436.998 352.625C437.296 352.04 437.445 351.361 437.445 350.589C437.445 349.817 437.296 349.144 436.998 348.57C436.7 347.986 436.287 347.539 435.757 347.23C435.228 346.921 434.616 346.767 433.921 346.767C433.226 346.767 432.608 346.921 432.067 347.23C431.538 347.539 431.124 347.986 430.826 348.57C430.528 349.144 430.379 349.817 430.379 350.589C430.379 351.361 430.528 352.04 430.826 352.625C431.124 353.209 431.538 353.662 432.067 353.981C432.608 354.29 433.226 354.445 433.921 354.445ZM452.576 354.197H447.976L447.215 356.397H444.783L448.936 344.831H451.633L455.787 356.397H453.338L452.576 354.197ZM451.948 352.343L450.276 347.511L448.605 352.343H451.948ZM459.656 354.561H463.462V356.397H457.339V344.847H459.656V354.561ZM467.251 354.561H471.057V356.397H464.934V344.847H467.251V354.561ZM484.894 348.422C484.894 349.039 484.745 349.618 484.448 350.159C484.161 350.7 483.703 351.135 483.074 351.466C482.456 351.797 481.673 351.963 480.725 351.963H478.788V356.397H476.472V344.847H480.725C481.618 344.847 482.379 345.002 483.008 345.311C483.637 345.62 484.106 346.044 484.415 346.585C484.734 347.125 484.894 347.738 484.894 348.422ZM480.625 350.093C481.265 350.093 481.739 349.949 482.048 349.663C482.357 349.365 482.512 348.951 482.512 348.422C482.512 347.296 481.883 346.734 480.625 346.734H478.788V350.093H480.625ZM488.856 346.717V349.613H492.744V351.45H488.856V354.511H493.241V356.397H486.539V344.831H493.241V346.717H488.856ZM505.225 356.397H502.908L497.663 348.471V356.397H495.346V344.831H497.663L502.908 352.773V344.831H505.225V356.397ZM515.556 348.322C515.291 347.837 514.927 347.467 514.464 347.214C514.001 346.96 513.46 346.833 512.842 346.833C512.158 346.833 511.552 346.987 511.022 347.296C510.493 347.605 510.079 348.047 509.781 348.62C509.483 349.194 509.334 349.856 509.334 350.606C509.334 351.378 509.483 352.051 509.781 352.625C510.09 353.198 510.515 353.639 511.055 353.948C511.596 354.257 512.225 354.412 512.942 354.412C513.824 354.412 514.547 354.18 515.109 353.717C515.672 353.242 516.041 352.586 516.218 351.748H512.247V349.977H518.501V351.996C518.347 352.801 518.016 353.546 517.509 354.23C517.001 354.914 516.345 355.465 515.539 355.884C514.745 356.293 513.852 356.497 512.859 356.497C511.745 356.497 510.735 356.248 509.831 355.752C508.937 355.245 508.231 354.544 507.713 353.65C507.205 352.757 506.951 351.742 506.951 350.606C506.951 349.47 507.205 348.455 507.713 347.561C508.231 346.657 508.937 345.956 509.831 345.46C510.735 344.952 511.739 344.698 512.842 344.698C514.144 344.698 515.275 345.018 516.234 345.658C517.194 346.287 517.856 347.175 518.22 348.322H515.556ZM522.499 344.847V351.996C522.499 352.779 522.703 353.38 523.111 353.799C523.519 354.208 524.093 354.412 524.832 354.412C525.582 354.412 526.161 354.208 526.57 353.799C526.978 353.38 527.182 352.779 527.182 351.996V344.847H529.515V351.979C529.515 352.961 529.3 353.794 528.87 354.478C528.45 355.151 527.882 355.658 527.165 356C526.459 356.342 525.67 356.513 524.799 356.513C523.938 356.513 523.155 356.342 522.449 356C521.754 355.658 521.203 355.151 520.795 354.478C520.386 353.794 520.182 352.961 520.182 351.979V344.847H522.499ZM537.71 356.397L535.162 351.896H534.07V356.397H531.753V344.847H536.089C536.982 344.847 537.743 345.007 538.372 345.327C539.001 345.636 539.47 346.061 539.779 346.601C540.099 347.131 540.258 347.727 540.258 348.388C540.258 349.15 540.038 349.839 539.597 350.457C539.155 351.064 538.499 351.483 537.627 351.714L540.391 356.397H537.71ZM534.07 350.159H536.006C536.635 350.159 537.103 350.01 537.412 349.712C537.721 349.403 537.876 348.979 537.876 348.438C537.876 347.909 537.721 347.5 537.412 347.214C537.103 346.916 536.635 346.767 536.006 346.767H534.07V350.159ZM544.637 344.847V351.996C544.637 352.779 544.841 353.38 545.25 353.799C545.658 354.208 546.231 354.412 546.97 354.412C547.721 354.412 548.3 354.208 548.708 353.799C549.116 353.38 549.32 352.779 549.32 351.996V344.847H551.653V351.979C551.653 352.961 551.438 353.794 551.008 354.478C550.589 355.151 550.021 355.658 549.304 356C548.598 356.342 547.809 356.513 546.937 356.513C546.077 356.513 545.294 356.342 544.588 356C543.893 355.658 543.341 355.151 542.933 354.478C542.525 353.794 542.321 352.961 542.321 351.979V344.847H544.637ZM557.879 356.513C557.074 356.513 556.346 356.375 555.695 356.099C555.055 355.824 554.548 355.427 554.173 354.908C553.798 354.39 553.605 353.777 553.594 353.071H556.076C556.109 353.546 556.274 353.921 556.572 354.197C556.881 354.472 557.3 354.61 557.83 354.61C558.37 354.61 558.795 354.483 559.104 354.23C559.413 353.965 559.567 353.623 559.567 353.204C559.567 352.862 559.462 352.58 559.253 352.36C559.043 352.139 558.779 351.968 558.459 351.847C558.15 351.714 557.72 351.571 557.168 351.417C556.418 351.196 555.806 350.981 555.331 350.771C554.868 350.551 554.465 350.225 554.123 349.795C553.792 349.354 553.627 348.769 553.627 348.041C553.627 347.357 553.798 346.761 554.14 346.254C554.482 345.746 554.962 345.36 555.579 345.096C556.197 344.82 556.903 344.682 557.697 344.682C558.889 344.682 559.854 344.974 560.593 345.559C561.343 346.133 561.757 346.938 561.834 347.975H559.286C559.264 347.578 559.093 347.252 558.773 346.999C558.464 346.734 558.05 346.601 557.532 346.601C557.08 346.601 556.716 346.717 556.44 346.949C556.175 347.181 556.043 347.517 556.043 347.958C556.043 348.267 556.142 348.526 556.341 348.736C556.55 348.935 556.804 349.1 557.102 349.232C557.411 349.354 557.841 349.497 558.392 349.663C559.143 349.883 559.755 350.104 560.229 350.325C560.704 350.545 561.112 350.876 561.454 351.317C561.796 351.759 561.967 352.338 561.967 353.055C561.967 353.673 561.807 354.246 561.487 354.776C561.167 355.305 560.698 355.73 560.08 356.05C559.462 356.359 558.729 356.513 557.879 356.513ZM571.955 344.847C573.169 344.847 574.233 345.085 575.149 345.559C576.076 346.033 576.787 346.712 577.284 347.594C577.791 348.466 578.045 349.481 578.045 350.639C578.045 351.797 577.791 352.812 577.284 353.684C576.787 354.544 576.076 355.211 575.149 355.686C574.233 356.16 573.169 356.397 571.955 356.397H567.918V344.847H571.955ZM571.873 354.428C573.086 354.428 574.024 354.097 574.686 353.435C575.348 352.773 575.679 351.841 575.679 350.639C575.679 349.436 575.348 348.499 574.686 347.826C574.024 347.142 573.086 346.8 571.873 346.8H570.235V354.428H571.873ZM585.14 356.513C584.059 356.513 583.066 356.259 582.162 355.752C581.257 355.245 580.54 354.544 580.011 353.65C579.481 352.746 579.216 351.726 579.216 350.589C579.216 349.464 579.481 348.455 580.011 347.561C580.54 346.657 581.257 345.951 582.162 345.443C583.066 344.936 584.059 344.682 585.14 344.682C586.232 344.682 587.225 344.936 588.119 345.443C589.023 345.951 589.735 346.657 590.253 347.561C590.783 348.455 591.048 349.464 591.048 350.589C591.048 351.726 590.783 352.746 590.253 353.65C589.735 354.544 589.023 355.245 588.119 355.752C587.214 356.259 586.221 356.513 585.14 356.513ZM585.14 354.445C585.835 354.445 586.447 354.29 586.977 353.981C587.506 353.662 587.92 353.209 588.218 352.625C588.516 352.04 588.665 351.361 588.665 350.589C588.665 349.817 588.516 349.144 588.218 348.57C587.92 347.986 587.506 347.539 586.977 347.23C586.447 346.921 585.835 346.767 585.14 346.767C584.445 346.767 583.827 346.921 583.287 347.23C582.757 347.539 582.344 347.986 582.046 348.57C581.748 349.144 581.599 349.817 581.599 350.589C581.599 351.361 581.748 352.04 582.046 352.625C582.344 353.209 582.757 353.662 583.287 353.981C583.827 354.29 584.445 354.445 585.14 354.445ZM596.759 356.513C595.954 356.513 595.226 356.375 594.575 356.099C593.935 355.824 593.427 355.427 593.052 354.908C592.677 354.39 592.484 353.777 592.473 353.071H594.955C594.988 353.546 595.154 353.921 595.452 354.197C595.761 354.472 596.18 354.61 596.709 354.61C597.25 354.61 597.675 354.483 597.984 354.23C598.292 353.965 598.447 353.623 598.447 353.204C598.447 352.862 598.342 352.58 598.132 352.36C597.923 352.139 597.658 351.968 597.338 351.847C597.029 351.714 596.599 351.571 596.047 351.417C595.297 351.196 594.685 350.981 594.211 350.771C593.747 350.551 593.345 350.225 593.003 349.795C592.672 349.354 592.506 348.769 592.506 348.041C592.506 347.357 592.677 346.761 593.019 346.254C593.361 345.746 593.841 345.36 594.459 345.096C595.077 344.82 595.783 344.682 596.577 344.682C597.768 344.682 598.734 344.974 599.473 345.559C600.223 346.133 600.637 346.938 600.714 347.975H598.166C598.143 347.578 597.972 347.252 597.653 346.999C597.344 346.734 596.93 346.601 596.412 346.601C595.959 346.601 595.595 346.717 595.319 346.949C595.055 347.181 594.922 347.517 594.922 347.958C594.922 348.267 595.022 348.526 595.22 348.736C595.43 348.935 595.683 349.1 595.981 349.232C596.29 349.354 596.72 349.497 597.272 349.663C598.022 349.883 598.634 350.104 599.109 350.325C599.583 350.545 599.991 350.876 600.333 351.317C600.675 351.759 600.846 352.338 600.846 353.055C600.846 353.673 600.686 354.246 600.366 354.776C600.046 355.305 599.578 355.73 598.96 356.05C598.342 356.359 597.608 356.513 596.759 356.513ZM602.292 350.606C602.292 349.47 602.546 348.455 603.053 347.561C603.572 346.657 604.272 345.956 605.155 345.46C606.048 344.952 607.047 344.698 608.15 344.698C609.44 344.698 610.571 345.029 611.542 345.691C612.513 346.353 613.191 347.269 613.577 348.438H610.913C610.648 347.887 610.273 347.473 609.788 347.197C609.314 346.921 608.762 346.783 608.133 346.783C607.46 346.783 606.859 346.943 606.33 347.263C605.811 347.572 605.403 348.013 605.105 348.587C604.818 349.161 604.675 349.834 604.675 350.606C604.675 351.367 604.818 352.04 605.105 352.625C605.403 353.198 605.811 353.645 606.33 353.965C606.859 354.274 607.46 354.428 608.133 354.428C608.762 354.428 609.314 354.29 609.788 354.015C610.273 353.728 610.648 353.309 610.913 352.757H613.577C613.191 353.937 612.513 354.858 611.542 355.52C610.582 356.171 609.451 356.497 608.15 356.497C607.047 356.497 606.048 356.248 605.155 355.752C604.272 355.245 603.572 354.544 603.053 353.65C602.546 352.757 602.292 351.742 602.292 350.606ZM620.917 356.513C619.836 356.513 618.843 356.259 617.939 355.752C617.034 355.245 616.317 354.544 615.788 353.65C615.258 352.746 614.993 351.726 614.993 350.589C614.993 349.464 615.258 348.455 615.788 347.561C616.317 346.657 617.034 345.951 617.939 345.443C618.843 344.936 619.836 344.682 620.917 344.682C622.009 344.682 623.002 344.936 623.896 345.443C624.8 345.951 625.512 346.657 626.03 347.561C626.56 348.455 626.825 349.464 626.825 350.589C626.825 351.726 626.56 352.746 626.03 353.65C625.512 354.544 624.8 355.245 623.896 355.752C622.991 356.259 621.998 356.513 620.917 356.513ZM620.917 354.445C621.612 354.445 622.224 354.29 622.754 353.981C623.283 353.662 623.697 353.209 623.995 352.625C624.293 352.04 624.442 351.361 624.442 350.589C624.442 349.817 624.293 349.144 623.995 348.57C623.697 347.986 623.283 347.539 622.754 347.23C622.224 346.921 621.612 346.767 620.917 346.767C620.222 346.767 619.604 346.921 619.064 347.23C618.534 347.539 618.121 347.986 617.823 348.57C617.525 349.144 617.376 349.817 617.376 350.589C617.376 351.361 617.525 352.04 617.823 352.625C618.121 353.209 618.534 353.662 619.064 353.981C619.604 354.29 620.222 354.445 620.917 354.445ZM641.14 344.847V356.397H638.824V348.885L635.73 356.397H633.976L630.865 348.885V356.397H628.548V344.847H631.179L634.853 353.435L638.526 344.847H641.14Z" fill="white"/>
</g>
<path d="M668.083 683.544H392.158L196.487 870.941L148.5 1006.21H912.155L863.754 870.114L668.083 683.544Z" fill="#2152B1" stroke="#3063D1" stroke-width="1.65472"/>
<path d="M253.989 551.166L148.5 528V1006.63L196.901 870.528L392.572 683.544L253.989 551.166Z" fill="#2152B1" stroke="#3063D1" stroke-width="1.65472"/>
<path d="M807.08 551.166L912.568 528V1006.63L864.168 870.528L668.497 683.544L807.08 551.166Z" fill="#2152B1" stroke="#3063D1" stroke-width="1.65472"/>
<defs>
<filter id="filter0_f_162_33" x="0.10434" y="0.843597" width="1061.5" height="787.648" filterUnits="userSpaceOnUse" color-interpolation-filters="sRGB">
<feFlood flood-opacity="0" result="BackgroundImageFix"/>
<feBlend mode="normal" in="SourceGraphic" in2="BackgroundImageFix" result="shape"/>
<feGaussianBlur stdDeviation="82.7362" result="effect1_foregroundBlur_162_33"/>
</filter>
<filter id="filter1_d_162_33" x="311.155" y="263.627" width="437.884" height="64.3894" filterUnits="userSpaceOnUse" color-interpolation-filters="sRGB">
<feFlood flood-opacity="0" result="BackgroundImageFix"/>
<feColorMatrix in="SourceAlpha" type="matrix" values="0 0 0 0 0 0 0 0 0 0 0 0 0 0 0 0 0 0 127 0" result="hardAlpha"/>
<feOffset dy="3.30945"/>
<feGaussianBlur stdDeviation="1.65472"/>
<feComposite in2="hardAlpha" operator="out"/>
<feColorMatrix type="matrix" values="0 0 0 0 0 0 0 0 0 0 0 0 0 0 0 0 0 0 0.25 0"/>
<feBlend mode="normal" in2="BackgroundImageFix" result="effect1_dropShadow_162_33"/>
<feBlend mode="normal" in="SourceGraphic" in2="effect1_dropShadow_162_33" result="shape"/>
</filter>
<filter id="filter2_d_162_33" x="415.087" y="344.682" width="229.363" height="18.4502" filterUnits="userSpaceOnUse" color-interpolation-filters="sRGB">
<feFlood flood-opacity="0" result="BackgroundImageFix"/>
<feColorMatrix in="SourceAlpha" type="matrix" values="0 0 0 0 0 0 0 0 0 0 0 0 0 0 0 0 0 0 127 0" result="hardAlpha"/>
<feOffset dy="3.30945"/>
<feGaussianBlur stdDeviation="1.65472"/>
<feComposite in2="hardAlpha" operator="out"/>
<feColorMatrix type="matrix" values="0 0 0 0 0 0 0 0 0 0 0 0 0 0 0 0 0 0 0.25 0"/>
<feBlend mode="normal" in2="BackgroundImageFix" result="effect1_dropShadow_162_33"/>
<feBlend mode="normal" in="SourceGraphic" in2="effect1_dropShadow_162_33" result="shape"/>
</filter>
<linearGradient id="paint0_linear_162_33" x1="530.5" y1="178" x2="530.5" y2="939" gradientUnits="userSpaceOnUse">
<stop stop-color="#36ABF9"/>
<stop offset="0.519195" stop-color="#8ED8FF"/>
<stop offset="1" stop-color="#9EE1FE"/>
</linearGradient>
<linearGradient id="paint1_linear_162_33" x1="359.228" y1="234.16" x2="700.928" y2="234.16" gradientUnits="userSpaceOnUse">
<stop stop-color="#018BD2" stop-opacity="0"/>
<stop offset="0.0913462" stop-color="white"/>
<stop offset="0.9" stop-color="white"/>
<stop offset="1" stop-color="#018BD2" stop-opacity="0"/>
</linearGradient>
</defs>
</svg>
