<svg width="282" height="280" viewBox="0 0 282 280" fill="none" xmlns="http://www.w3.org/2000/svg">
<path fill-rule="evenodd" clip-rule="evenodd" d="M28.9637 274.524L57.9273 275.087L58.4895 246.123L59.0518 217.159L30.0881 216.597L1.12444 216.035L0.562219 244.998L0 273.962L28.9637 274.524ZM5.37217 207.936L9.46116 208.016L9.54714 203.586L9.63313 199.156L13.7221 199.236L17.8111 199.315L17.7251 203.745L17.6391 208.174L21.7281 208.254L25.8171 208.333L25.9825 199.814L26.1478 191.296L22.0588 191.216L17.9698 191.137L18.0492 187.048L18.1286 182.959L22.2176 183.038L26.3066 183.118L26.3859 179.029L26.4653 174.94L30.8951 175.026L35.3248 175.112L35 191.842L34.6753 208.573L38.5978 208.445L42.5204 208.316L42.8062 204.061L43.0913 199.806L47.1482 199.884L51.2045 199.963L51.1185 204.393L51.0325 208.823L59.2105 208.981L67.3885 209.14L67.4745 204.71L67.5605 200.281L59.3825 200.122L51.2045 199.963L51.2839 195.874L51.3632 191.785L55.4522 191.864L59.5412 191.944L59.6206 187.855L59.7 183.766L63.789 183.845L67.8779 183.925L67.9567 179.868L68.0354 175.811L72.2987 175.692L76.562 175.571L76.8425 171.657L77.1231 167.742L85.267 167.9L93.4109 168.058L93.6556 155.45L93.9003 142.843L97.9893 142.922L102.078 143.001L102.158 138.912L102.237 134.823L98.148 134.744L94.0591 134.665L94.2178 126.487L94.3766 118.309L98.4655 118.388L102.555 118.468L102.475 122.557L102.396 126.646L106.485 126.725L110.574 126.804L110.74 118.253L110.906 109.702L115.161 109.987L119.417 110.273L119.446 118.625L119.475 126.977L123.543 127.056L127.611 127.135L127.532 131.224L127.452 135.313L123.363 135.234L119.274 135.154L119.195 139.243L119.116 143.332L114.686 143.246L110.256 143.16L110.177 147.249L110.098 151.338L106.009 151.259L101.92 151.179L101.675 163.787L101.43 176.395L97.3411 176.315L93.2521 176.236L93.1727 180.325L93.0934 184.414L89.0044 184.335L84.9154 184.255L84.836 188.344L84.7566 192.433L80.6677 192.354L76.5787 192.275L76.4127 200.827L76.2466 209.38L80.1692 209.252L84.0918 209.123L84.4454 200.779L84.7989 192.434L88.8668 192.513L92.9346 192.592L92.8553 196.681L92.7759 200.77L96.8649 200.849L100.954 200.929L100.868 205.359L100.782 209.788L104.871 209.868L108.96 209.947L108.88 214.036L108.801 218.125L104.712 218.046L100.623 217.966L100.544 222.055L100.464 226.144L104.553 226.224L108.642 226.303L108.484 234.481L108.325 242.659L91.9689 242.341L75.613 242.024L75.527 246.454L75.441 250.883L79.53 250.963L83.619 251.042L83.5396 255.131L83.4602 259.22L79.3712 259.141L75.2823 259.061L75.2029 263.15L75.1235 267.239L79.2125 267.319L83.3015 267.398L83.3809 263.309L83.4602 259.22L91.6382 259.379L99.8162 259.538L99.6574 267.716L99.4987 275.894L103.588 275.973L107.677 276.052L107.756 271.963L107.835 267.874L112.265 267.96L116.695 268.046L116.854 259.868L117.012 251.69L121.101 251.77L125.19 251.849L125.111 255.938L125.032 260.027L129.121 260.106L133.21 260.186L133.13 264.275L133.051 268.364L128.962 268.284L124.873 268.205L124.793 272.294L124.714 276.383L128.803 276.462L132.892 276.542L132.971 272.453L133.051 268.364L145.318 268.602L157.585 268.84L157.505 272.929L157.426 277.018L182.641 277.507L207.857 277.997L208.016 269.819L208.174 261.641L203.745 261.555L199.315 261.469L199.236 265.558L199.156 269.647L190.978 269.488L182.8 269.329L182.88 265.24L182.959 261.151L187.048 261.231L191.137 261.31L191.302 252.792L191.468 244.273L179.201 244.035L166.934 243.797L167.013 239.708L167.092 235.619L171.181 235.698L175.27 235.777L175.429 227.599L175.588 219.421L179.677 219.501L183.766 219.58L183.687 223.669L183.607 227.758L187.696 227.837L191.785 227.917L191.706 232.006L191.626 236.095L200.145 236.26L208.664 236.426L208.902 224.159L209.14 211.892L213.229 211.971L217.318 212.05L217.404 207.621L217.49 203.191L221.579 203.27L225.668 203.35L225.582 207.779L225.496 212.209L229.585 212.288L233.674 212.368L233.839 203.849L234.005 195.33L229.916 195.251L225.827 195.172L225.906 191.083L225.985 186.994L234.163 187.152L242.341 187.311L242.183 195.489L242.024 203.667L246.454 203.753L250.883 203.839L250.963 199.75L251.042 195.661L255.131 195.74L259.22 195.82L259.141 199.909L259.061 203.998L267.239 204.157L275.417 204.315L275.497 200.226L275.576 196.137L267.398 195.979L259.22 195.82L259.299 191.731L259.379 187.642L250.844 187.476L242.311 187.311L242.738 174.877L243.165 162.443L251.517 162.414L259.869 162.384L259.948 158.316L260.027 154.248L251.508 154.083L242.99 153.918L243.148 145.74L243.307 137.562L235.129 137.403L226.951 137.244L227.196 124.637L227.441 112.029L231.53 112.108L235.619 112.188L235.698 108.099L235.777 104.01L239.866 104.089L243.955 104.168L243.79 112.687L243.625 121.206L239.536 121.126L235.447 121.047L235.367 125.136L235.288 129.225L239.377 129.304L243.466 129.384L243.545 125.328L243.623 121.271L247.887 121.151L252.15 121.03L252.436 116.775L252.721 112.52L256.778 112.598L260.834 112.677L260.669 121.196L260.503 129.715L256.414 129.635L252.325 129.556L252.246 133.645L252.167 137.734L256.256 137.813L260.345 137.893L260.265 141.982L260.186 146.071L264.275 146.15L268.364 146.229L268.205 154.407L268.046 162.585L272.135 162.665L276.224 162.744L276.462 150.477L276.701 138.21L272.612 138.131L268.523 138.051L268.767 125.444L269.012 112.836L264.923 112.756L260.834 112.677L256.745 112.598L252.656 112.518L252.894 100.251L252.974 96.1624L248.544 96.0764L244.114 95.9904L244.193 91.9015L244.273 87.8125L252.792 87.9778L257.903 88.0771L257.823 92.166L257.744 96.255L257.982 83.9881L258.234 71.0396L273.908 71.3439L269.819 71.2645L269.647 80.124L265.558 80.0446L258.062 79.8991L258.2 72.7433L258.234 71.0396L256.871 71.0131L253.463 70.947L253.542 66.858L253.622 62.769L249.192 62.683L244.762 62.597L244.842 58.5081L244.921 54.4191L249.366 54.5054L258.396 54.6806L258.452 42.2397L258.507 29.7987L245.578 29.3562L237.233 29.0026L237.312 24.9348L237.391 20.8669L245.91 21.0323L259.013 21.2866L259.093 17.1977L259.172 13.1087L250.158 12.9337L245.728 12.8477L245.807 8.7587L245.887 4.66972L241.798 4.59034L237.709 4.51097L237.629 8.59995L237.55 12.689L229.372 12.5302L221.194 12.3715L221.273 8.28247L221.353 4.19348L208.745 3.94875L196.137 3.70402L196.058 7.793L195.979 11.882L187.801 11.7233L179.623 11.5645L179.543 15.6535L179.464 19.7425L183.553 19.8219L187.642 19.9012L187.477 28.42L187.311 36.9387L183.222 36.8593L179.133 36.7799L179.219 32.3502L179.305 27.9205L175.216 27.8411L171.127 27.7617L171.285 19.6165L171.443 11.4705L167.188 11.1854L162.933 10.8997L162.804 6.9771L162.676 3.05449L150.443 2.81704L138.21 2.57958L138.131 6.66857L138.051 10.7576L129.873 10.5988L121.695 10.4401L121.775 6.35108L121.854 2.26209L109.246 2.01736L96.6387 1.77263L96.5593 5.86162L96.4799 9.95063L92.3909 9.87126L88.3019 9.79188L88.2226 13.8809L88.1432 17.9698L79.6245 17.8045L71.1057 17.6391L71.027 21.6954L70.9483 25.7524L75.2037 26.0374L79.4591 26.3232L79.3797 30.4122L79.3004 34.5012L75.0043 34.6216L70.7076 34.7421L70.836 38.6313L70.9636 42.5204L75.2191 42.8062L79.4745 43.0913L79.3957 47.1482L79.317 51.2045L74.8873 51.1185L70.4575 51.0325L70.3782 55.1215L70.2988 59.2105L74.7285 59.2965L79.1583 59.3825L79.0789 63.4715L78.9995 67.5604L87.1775 67.7192L95.3555 67.8779L95.4348 63.789L95.5142 59.7L112.211 60.0241L128.908 60.3482L128.742 68.8669L128.577 77.3856L132.666 77.465L136.755 77.5444L136.675 81.6456L136.596 85.7469L153.126 85.885L169.655 86.0232L170.009 77.6786L170.362 69.3339L174.43 69.4129L178.498 69.4918L178.412 73.9216L178.326 78.3513L182.415 78.4307L186.504 78.5101L186.59 74.0803L186.676 69.6506L182.587 69.5712L178.498 69.4918L178.578 65.4029L178.657 61.3139L182.746 61.3932L186.835 61.4726L186.914 57.3836L186.994 53.2946L195.172 53.4534L203.35 53.6121L203.192 61.756L203.033 69.8999L199.111 70.0283L195.188 70.1567L195.109 74.2457L195.03 78.3347L198.944 78.6152L202.859 78.8957L202.78 82.9506L202.701 87.0055L194.523 86.8468L186.345 86.688L186.266 90.777L186.187 94.866L182.098 94.7866L178.009 94.7073L177.929 98.7963L177.85 102.885L173.782 102.806L169.714 102.727L169.361 111.072L169.007 119.417L164.744 119.537L160.481 119.657L160.401 123.748L160.322 127.838L156.407 127.558L152.492 127.277L152.364 123.354L152.236 119.432L148.181 119.353L144.126 119.274L144.047 123.363L143.967 127.452L139.878 127.373L135.789 127.294L135.955 118.775L136.12 110.256L144.298 110.415L152.476 110.574L152.555 106.485L152.635 102.396L156.724 102.475L160.813 102.555L160.892 98.4655L160.971 94.3765L156.882 94.2972L152.793 94.2178L152.714 98.3068L152.635 102.396L144.457 102.237L136.279 102.078L136.199 106.167L136.12 110.256L132.031 110.177L127.942 110.098L128.021 106.009L128.101 101.92L124.012 101.84L119.923 101.761L120.002 97.6718L120.081 93.5828L124.17 93.6622L128.259 93.7416L128.339 89.6526L128.418 85.5636L124.35 85.4846L120.282 85.4057L120.253 77.0536L120.224 68.7015L111.879 68.348L103.534 67.9944L103.448 72.4453L103.361 76.8962L99.2725 76.8168L95.1835 76.7374L95.0248 84.9154L94.866 93.0934L90.777 93.014L86.688 92.9346L86.5293 101.113L86.3705 109.291L82.3143 109.212L78.2573 109.133L77.9722 113.389L77.6865 117.644L73.5975 117.565L69.5085 117.485L69.3881 113.222L69.2684 108.959L65.2114 108.88L61.1551 108.801L61.2345 104.712L61.3139 100.623L57.2249 100.544L53.1359 100.464L53.2153 96.3754L53.2946 92.2864L57.3836 92.3658L61.4726 92.4452L61.552 88.3562L61.6314 84.2672L74.2391 84.5119L86.8468 84.7566L86.9261 80.6677L87.0055 76.5787L74.3978 76.3339L61.7901 76.0892L61.8761 71.6595L61.9621 67.2297L53.7841 67.071L45.6061 66.9122L45.4408 75.431L45.2754 83.9497L41.2075 83.8707L37.1397 83.7918L37.1102 75.4397L37.0808 67.0876L20.558 66.5842L4.03523 66.0807L3.949 70.5228L3.86278 74.9648L12.0408 75.1235L20.2187 75.2823L20.1394 79.3712L20.06 83.4602L11.882 83.3015L3.70403 83.1427L3.62466 87.2317L3.54529 91.3207L7.63428 91.4001L11.7233 91.4795L11.6439 95.5685L11.5645 99.6574L7.47553 99.5781L3.38654 99.4987L3.22119 108.017L3.05583 116.536L7.14481 116.616L11.2338 116.695L11.0751 124.873L10.9163 133.051L6.82733 132.971L2.73834 132.892L2.65897 136.981L2.57959 141.07L6.66858 141.149L10.7576 141.229L10.6782 145.318L10.5988 149.407L18.7768 149.566L26.9548 149.724L26.876 153.781L26.7973 157.838L31.0527 158.123L35.3081 158.408L35.4285 162.672L35.5483 166.935L26.9975 166.769L18.4461 166.603L18.5321 162.173L18.6181 157.744L10.4401 157.585L2.26211 157.426L2.17612 161.856L2.09013 166.285L10.2681 166.444L18.4461 166.603L18.3667 170.692L18.2873 174.781L10.1094 174.622L1.93139 174.463L1.85202 178.552L1.77264 182.641L5.86163 182.721L9.95062 182.8L9.79187 190.978L9.63313 199.156L5.54414 199.077L1.45516 198.997L1.36917 203.427L1.28318 207.857L5.37217 207.936ZM33.1572 58.4895L62.1208 59.0518L62.683 30.0881L63.2453 1.12443L34.2816 0.562208L5.31793 -1.08791e-05L4.75571 28.9637L4.19349 57.9273L33.1572 58.4895ZM29.9294 224.775L50.715 225.179L50.3116 245.964L49.9081 266.75L29.1224 266.346L8.33672 265.943L8.74019 245.157L9.14367 224.372L29.9294 224.775ZM32.3502 100.061L53.1359 100.464L53.0565 104.553L52.9771 108.642L57.0661 108.722L61.1551 108.801L61.0685 113.265L60.9818 117.729L57.0672 117.448L53.1525 117.168L53.0321 112.904L52.9124 108.641L48.8882 108.563L44.8639 108.485L44.5788 112.74L44.2931 116.996L32.0261 116.758L19.7591 116.519L19.6387 112.256L19.519 107.993L15.4621 107.914L11.4058 107.835L11.4851 103.746L11.5645 99.6574L32.3502 100.061ZM34.1228 8.7402L54.9085 9.14368L54.5051 29.9293L54.1016 50.715L33.3159 50.3116L12.5302 49.9081L12.9337 29.1224L13.3372 8.33673L34.1228 8.7402ZM29.2812 258.168L41.8889 258.413L42.1336 245.805L42.3783 233.198L29.7706 232.953L17.1629 232.708L16.9182 245.316L16.6734 257.924L29.2812 258.168ZM33.4746 42.1336L46.0824 42.3783L46.3271 29.7706L46.5718 17.1629L33.9641 16.9182L21.3564 16.6734L21.1117 29.2811L20.8669 41.8889L33.4746 42.1336ZM39.6052 167.014L43.7263 167.094L43.6065 162.83L43.4861 158.567L39.5715 158.287L35.6568 158.006L35.7355 153.951L35.8142 149.896L43.9922 150.055L52.1702 150.214L52.2496 146.125L52.3289 142.036L44.151 141.877L35.973 141.718L36.1317 133.54L36.2905 125.362L40.3795 125.442L44.4685 125.521L44.5478 121.432L44.6272 117.343L48.7162 117.422L52.8052 117.502L52.7258 121.591L52.6464 125.68L56.7354 125.759L60.8244 125.839L60.745 129.928L60.6657 134.017L64.7546 134.096L68.8436 134.175L68.923 130.086L69.0024 125.997L73.4321 126.083L77.8619 126.169L77.9412 122.08L78.0206 117.991L82.1096 118.071L86.1986 118.15L86.1192 122.239L86.0398 126.328L81.9508 126.249L77.8619 126.169L77.7825 130.258L77.7031 134.347L81.7921 134.427L85.8811 134.506L85.643 146.773L85.4048 159.04L81.3486 158.961L77.2916 158.882L77.0065 163.138L76.7208 167.393L72.4575 167.514L68.1942 167.633L68.1154 171.69L68.0367 175.747L63.9477 175.667L59.8587 175.588L59.7793 179.677L59.7 183.766L55.611 183.687L51.522 183.607L51.4426 187.696L51.3632 191.785L47.2743 191.706L43.1853 191.626L43.2646 187.537L43.344 183.448L47.433 183.528L51.522 183.607L51.6014 179.518L51.6807 175.429L55.7697 175.509L59.8587 175.588L59.9381 171.499L60.0175 167.41L51.8395 167.251L43.6615 167.092L43.5821 171.181L43.5028 175.27L39.4138 175.191L35.3248 175.112L35.4042 171.023L35.4835 166.934L39.6052 167.014ZM49.3644 84.0291L53.4534 84.1084L53.5328 80.0194L53.6121 75.9305L57.7011 76.0098L61.7901 76.0892L61.7107 80.1782L61.6314 84.2672L57.5424 84.1878L53.4534 84.1084L53.374 88.1974L53.2946 92.2864L49.2056 92.207L45.1167 92.1277L45.196 88.0387L45.2754 83.9497L49.3644 84.0291ZM56.1004 158.471L60.1894 158.55L60.2688 154.461L60.3482 150.372L68.901 150.539L77.4538 150.705L77.3254 146.782L77.197 142.859L68.8524 142.506L60.5077 142.152L60.5867 138.084L60.6657 134.017L56.5767 133.937L52.4877 133.858L52.4083 137.947L52.3289 142.036L56.4179 142.115L60.5069 142.195L60.4275 146.283L60.3482 150.372L56.2592 150.293L52.1702 150.214L52.0908 154.303L52.0115 158.392L56.1004 158.471ZM75.431 233.839L83.9497 234.005L84.0291 229.916L84.1084 225.827L88.1974 225.906L92.2864 225.985L92.3658 221.896L92.4452 217.807L88.3562 217.728L84.2672 217.649L84.1878 221.738L84.1084 225.827L80.0195 225.747L75.9305 225.668L76.0098 221.579L76.0892 217.49L71.6595 217.404L67.2297 217.318L67.071 225.496L66.9122 233.674L75.431 233.839ZM75.6942 9.54715L80.124 9.63314L80.2033 5.54413L80.2827 1.45514L75.853 1.36916L71.4232 1.28317L71.3439 5.37215L71.2645 9.46117L75.6942 9.54715ZM83.406 51.2839L87.495 51.3632L87.4156 55.4522L87.3362 59.5412L83.2473 59.4618L79.1583 59.3825L79.2376 55.2935L79.317 51.2045L83.406 51.2839ZM95.9904 35.166L104.168 35.3248L104.254 30.895L104.34 26.4653L112.859 26.6307L121.378 26.796L121.457 22.707L121.537 18.6181L117.107 18.5321L112.677 18.4461L112.757 14.3244L112.837 10.2034L117.093 10.4884L121.348 10.7742L121.476 14.6968L121.605 18.6194L125.66 18.6981L129.715 18.7768L129.635 22.8658L129.556 26.9548L137.734 27.1135L145.912 27.2723L145.991 23.1833L146.071 19.0943L141.982 19.0149L137.893 18.9355L137.972 14.8466L138.051 10.7576L142.14 10.837L146.229 10.9163L146.15 15.0053L146.071 19.0943L150.159 19.1737L154.248 19.253L154.328 15.164L154.407 11.0751L158.496 11.1544L162.585 11.2338L162.506 15.3228L162.426 19.4118L158.316 19.332L154.206 19.2522L154.236 27.6043L154.265 35.9563L162.61 36.3099L170.954 36.6634L170.795 44.8523L170.636 53.0419L166.381 52.7568L162.126 52.471L161.997 48.5485L161.869 44.6259L153.725 44.4678L145.581 44.3097L145.66 40.2207L145.74 36.1317L137.562 35.973L129.384 35.8142L129.304 39.9032L129.225 43.9922L133.314 44.0716L137.403 44.151L137.324 48.2399L137.244 52.3289L141.333 52.4083L145.422 52.4877L145.343 56.5767L145.264 60.6657L137.086 60.5069L128.908 60.3482L128.987 56.2592L129.066 52.1702L116.459 51.9255L103.851 51.6807L103.93 47.5917L104.01 43.5028L95.8317 43.344L87.6537 43.1853L87.7331 39.0963L87.8125 35.0073L95.9904 35.166ZM92.2322 18.0492L96.3212 18.1286L96.4005 14.0396L96.4799 9.95063L100.569 10.03L104.658 10.1094L104.579 14.1984L104.499 18.2873L100.41 18.208L96.3212 18.1286L96.2418 22.2176L96.1624 26.3066L92.0734 26.2272L87.9844 26.1478L88.0638 22.0588L88.1432 17.9698L92.2322 18.0492ZM97.1823 184.493L101.271 184.573L101.351 180.484L101.43 176.395L105.519 176.474L109.608 176.554L109.853 163.946L110.098 151.338L114.107 151.416C118.569 151.503 118.921 151.927 118.838 157.132L118.798 159.688L122.887 159.767L126.976 159.847L127.056 155.758L127.135 151.669L123.046 151.59L118.957 151.51L119.036 147.421L119.116 143.332L123.205 143.412L127.294 143.491L127.214 147.58L127.135 151.669L131.224 151.748L135.313 151.828L135.234 155.917L135.154 160.006L139.243 160.085L143.332 160.164L143.246 164.594L143.16 169.024L139.071 168.944L134.982 168.865L134.744 181.132L134.506 193.399L130.417 193.32L126.328 193.24L126.083 205.848L125.839 218.456L129.928 218.535L134.017 218.614L133.937 222.703L133.858 226.792L129.769 226.713L125.68 226.634L125.759 222.545L125.839 218.456L121.75 218.376L117.661 218.297L118.064 197.511L118.468 176.726L122.557 176.805L126.646 176.884L126.725 172.795L126.804 168.706L122.749 168.628L118.694 168.549L118.414 172.464L118.133 176.378L113.87 176.499L109.607 176.618L109.449 184.764L109.291 192.91L101.113 192.751L92.9346 192.592L93.014 188.503L93.0934 184.414L97.1823 184.493ZM98.955 93.1727L103.044 93.2521L102.965 97.3411L102.885 101.43L106.974 101.509L111.063 101.589L110.984 105.678L110.904 109.767L106.815 109.687L102.726 109.608L102.806 105.519L102.885 101.43L98.7962 101.351L94.7073 101.271L94.7866 97.1824L94.866 93.0934L98.955 93.1727ZM104.064 251.439L108.153 251.518L108.074 255.607L107.994 259.696L103.905 259.617L99.8162 259.538L99.8956 255.449L99.9749 251.36L104.064 251.439ZM107.45 76.9755L111.539 77.0549L111.46 81.1439L111.381 85.2329L107.292 85.1535L103.203 85.0741L103.282 80.9851L103.361 76.8962L107.45 76.9755ZM108.099 43.5821L112.188 43.6615L112.267 39.5725L112.346 35.4835L108.257 35.4041L104.168 35.3248L104.089 39.4138L104.01 43.5028L108.099 43.5821ZM113.058 218.345L117.313 218.631L117.442 222.554L117.57 226.476L113.106 226.39L108.642 226.303L108.722 222.181L108.802 218.06L113.058 218.345ZM121.432 234.732L125.521 234.812L125.442 238.901L125.362 242.99L129.451 243.069L133.54 243.148L133.62 239.059L133.699 234.97L141.877 235.129L150.055 235.288L150.134 231.199L150.214 227.11L146.125 227.031L142.036 226.951L142.195 218.773L142.353 210.595L138.264 210.516L134.175 210.436L134.261 206.007L134.347 201.577L146.614 201.815L158.881 202.053L158.795 206.483L158.709 210.913L163.139 210.999L167.569 211.085L167.331 223.352L167.092 235.619L158.574 235.453L150.055 235.288L149.89 243.807L149.724 252.325L137.457 252.087L125.19 251.849L125.276 247.419L125.362 242.99L121.273 242.91L117.184 242.831L117.264 238.742L117.343 234.653L121.432 234.732ZM147.897 135.71L160.164 135.948L160.085 140.037L160.006 144.126L164.435 144.212L168.865 144.298L168.944 140.209L169.024 136.12L173.113 136.199L177.202 136.279L177.281 132.19L177.361 128.101L173.272 128.021L169.183 127.942L169.262 123.853L169.341 119.764L177.519 119.923L185.697 120.081L185.539 128.259L185.38 136.437L189.469 136.517L193.558 136.596L193.716 128.452L193.874 120.308L189.959 120.028L186.045 119.747L185.924 115.484L185.804 111.221L181.748 111.142L177.691 111.063L177.771 106.974L177.85 102.885L186.028 103.044L194.206 103.203L194.285 99.1137L194.365 95.0247L198.454 95.1041L202.543 95.1835L202.622 91.0945L202.701 87.0055L207.131 87.0915L211.561 87.1775L211.402 95.3555L211.243 103.533L202.725 103.368L194.206 103.203L194.041 111.721L193.875 120.24L197.942 120.319L202.01 120.398L202.046 128.409L202.083 136.421L206.339 136.707L210.594 136.992L210.753 128.782L210.913 120.571L215.002 120.65L219.091 120.73L218.932 128.908L218.773 137.086L222.862 137.165L226.951 137.244L226.872 141.333L226.792 145.422L222.703 145.343L218.614 145.264L218.456 153.442L218.297 161.62L226.475 161.778L234.653 161.937L234.732 157.848L234.812 153.759L238.901 153.838L242.99 153.918L242.91 158.007L242.831 162.096L238.742 162.016L234.653 161.937L234.567 166.367L234.481 170.796L222.214 170.558L209.947 170.32L209.868 174.409L209.788 178.498L213.877 178.578L217.966 178.657L217.887 182.725L217.808 186.793L209.456 186.822L201.104 186.852L200.757 194.855L200.41 202.859L196.342 202.78L192.275 202.701L192.189 207.131L192.103 211.561L183.925 211.402L175.747 211.243L175.833 206.814L175.919 202.384L184.097 202.543L192.275 202.701L192.678 181.916L193.082 161.13L184.904 160.971L176.726 160.813L176.805 156.724L176.884 152.635L180.973 152.714L185.062 152.793L185.221 144.615L185.38 136.437L181.291 136.358L177.202 136.279L177.122 140.368L177.043 144.457L172.954 144.377L168.865 144.298L168.706 152.476L168.548 160.654L160.029 160.488L151.51 160.323L151.59 156.234L151.669 152.145L147.58 152.066L143.491 151.986L143.57 147.897L143.65 143.808L139.561 143.729L135.472 143.65L135.551 139.561L135.63 135.472L147.897 135.71ZM141.016 68.7643L145.105 68.8436L145.019 73.2734L144.933 77.7031L140.844 77.6237L136.755 77.5444L136.841 73.1146L136.927 68.6849L141.016 68.7643ZM146.932 185.459L151.021 185.539L151.179 177.361L151.338 169.183L155.393 169.261L159.448 169.34L159.576 173.263L159.705 177.185L168.049 177.539L176.394 177.892L176.315 181.96L176.236 186.028L180.325 186.107L184.414 186.187L184.335 190.276L184.255 194.365L180.166 194.285L176.077 194.206L176.157 190.117L176.236 186.028L172.147 185.949L168.058 185.869L167.979 189.958L167.899 194.047L163.47 193.961L159.04 193.875L159.119 189.786L159.199 185.697L155.11 185.618L151.021 185.539L150.941 189.628L150.862 193.716L146.773 193.637L142.684 193.558L142.763 189.469L142.843 185.38L146.932 185.459ZM154.303 227.189L158.392 227.269L158.55 219.091L158.709 210.913L154.62 210.833L150.531 210.754L150.372 218.932L150.214 227.11L154.303 227.189ZM155.928 152.229L160.188 152.313L160.036 148.218L159.884 144.124L155.856 144.045L151.828 143.967L151.748 148.056L151.669 152.145L155.928 152.229ZM157.689 52.7258L161.778 52.8052L161.699 56.8942L161.62 60.9831L166.049 61.0691L170.479 61.1551L170.4 65.2114L170.321 69.2683L166.058 69.3881L161.795 69.5085L161.509 73.7639L161.224 78.0193L157.622 77.9494C155.641 77.911 153.819 77.6711 153.574 77.4161C153.329 77.1618 153.235 71.4844 153.364 64.7996L153.6 52.6464L157.689 52.7258ZM162.672 243.852L166.935 243.732L166.848 248.194L166.762 252.656L174.94 252.815L183.118 252.974L183.038 257.063L182.959 261.151L174.781 260.993L166.603 260.834L166.682 256.745L166.762 252.656L162.787 252.579C160.6 252.536 158.59 252.272 158.321 251.992C158.051 251.712 157.961 249.792 158.119 247.727L158.408 243.972L162.672 243.852ZM183.063 45.0373L187.152 45.1167L187.232 41.0277L187.311 36.9387L195.489 37.0974L203.667 37.2562L203.588 41.3452L203.508 45.4341L195.33 45.2754L187.152 45.1167L187.073 49.2056L186.994 53.2946L182.905 53.2153L178.816 53.1359L178.895 49.0469L178.974 44.9579L183.063 45.0373ZM196.033 219.818L200.122 219.898L200.042 223.987L199.963 228.076L195.874 227.996L191.785 227.917L191.864 223.828L191.944 219.739L196.033 219.818ZM197.329 153.031L201.418 153.111L201.498 149.022L201.577 144.933L197.488 144.853L193.399 144.774L193.32 148.863L193.24 152.952L197.329 153.031ZM200.068 11.9614L204.157 12.0408L204.077 16.1297L203.998 20.2187L208.428 20.3047L212.857 20.3907L212.937 16.3017L213.016 12.2127L217.105 12.2921L221.194 12.3715L221.115 16.4605L221.035 20.5494L225.124 20.6288L229.213 20.7082L229.134 24.7972L229.055 28.8862L233.144 28.9655L237.232 29.0449L237.146 33.4869L237.06 37.9289L220.537 37.4255L204.014 36.922L203.985 28.57L203.956 20.2179L199.888 20.1389L195.82 20.06L195.899 15.971L195.979 11.882L200.068 11.9614ZM206.648 111.966L210.737 112.046L210.658 116.135L210.579 120.224L206.829 120.233C204.766 120.238 202.837 120.096 202.542 119.919C202.246 119.741 202.129 117.862 202.282 115.742L202.559 111.887L206.648 111.966ZM214.525 145.184L218.614 145.264L218.694 141.175L218.773 137.086L214.684 137.006L210.595 136.927L210.516 141.016L210.436 145.105L214.525 145.184ZM224.635 45.8442L236.902 46.0824L236.664 58.3493L236.426 70.6163L224.159 70.3782L211.892 70.14L212.13 57.8731L212.368 45.6061L224.635 45.8442ZM216.788 28.648L220.877 28.7274L220.956 24.6384L221.035 20.5494L216.946 20.4701L212.857 20.3907L212.778 24.4797L212.699 28.5687L216.788 28.648ZM244.999 278.718L273.962 279.28L274.524 250.316L275.087 221.353L246.123 220.791L217.159 220.228L216.597 249.192L216.035 278.156L244.999 278.718ZM223.669 95.5936L227.758 95.673L227.679 99.7619L227.599 103.851L223.51 103.772L219.421 103.692L219.501 99.6032L219.58 95.5142L223.669 95.5936ZM224.317 62.2002L228.406 62.2796L228.486 58.1906L228.565 54.1016L224.476 54.0222L220.387 53.9428L220.308 58.0318L220.228 62.1208L224.317 62.2002ZM245.964 228.969L266.75 229.372L266.346 250.158L265.943 270.943L245.157 270.54L224.372 270.136L224.775 249.351L225.179 228.565L245.964 228.969ZM236.254 79.4758L244.432 79.6345L244.352 83.7235L244.273 87.8125L236.095 87.6537L227.917 87.495L227.996 83.406L228.076 79.317L236.254 79.4758ZM245.316 262.362L257.924 262.607L258.168 249.999L258.413 237.391L245.805 237.146L233.198 236.902L232.953 249.509L232.708 262.117L245.316 262.362ZM265.73 71.1851L269.819 71.2645L269.733 75.6942L269.647 80.124L265.558 80.0446L258.062 79.8991L258.148 75.4693L258.234 71.0396L265.73 71.1851ZM271.646 187.88L275.735 187.959L275.894 179.781L276.052 171.603L271.963 171.524L267.874 171.445L267.716 179.623L267.557 187.801L271.646 187.88Z" fill="black"/>
<path d="M276.348 98.7744C276.331 99.6249 276.115 100.384 275.698 101.053C275.271 101.71 274.705 102.228 273.999 102.607C273.294 102.975 272.505 103.15 271.633 103.133C270.76 103.116 269.979 102.905 269.289 102.499C268.599 102.093 268.058 101.553 267.668 100.88C267.277 100.207 267.09 99.451 267.106 98.6114C267.12 97.9027 267.274 97.2784 267.568 96.7387C267.862 96.199 268.263 95.7759 268.771 95.4695L269.191 95.7558L263.826 95.6516L263.861 93.8198L276.243 94.0601L276.209 95.8102L274.41 95.7753L274.757 95.5693C275.286 95.885 275.686 96.3291 275.959 96.9016C276.231 97.4741 276.361 98.0984 276.348 98.7744ZM274.634 98.5612C274.644 98.0487 274.527 97.5883 274.284 97.18C274.042 96.7608 273.704 96.4324 273.273 96.195C272.83 95.9464 272.331 95.8167 271.775 95.8059C271.219 95.7951 270.72 95.9055 270.28 96.1369C269.839 96.3574 269.489 96.6724 269.23 97.0819C268.972 97.4805 268.837 97.936 268.828 98.4485C268.818 98.961 268.934 99.4268 269.177 99.846C269.419 100.265 269.757 100.594 270.188 100.831C270.62 101.068 271.114 101.193 271.67 101.203C272.226 101.214 272.73 101.109 273.182 100.889C273.622 100.669 273.972 100.359 274.23 99.9605C274.489 99.551 274.624 99.0846 274.634 98.5612ZM276.564 87.6373C276.547 88.4878 276.331 89.2635 275.913 89.9645C275.496 90.6545 274.935 91.1999 274.229 91.6007C273.523 92.0015 272.729 92.1933 271.845 92.1762C270.951 92.1588 270.165 91.9363 269.486 91.5086C268.796 91.0807 268.262 90.514 267.883 89.8086C267.493 89.1029 267.306 88.3193 267.323 87.4579C267.34 86.5856 267.557 85.8099 267.973 85.1308C268.379 84.4405 268.935 83.9005 269.641 83.5106C270.336 83.1096 271.131 82.9177 272.025 82.9351C272.919 82.9524 273.711 83.1751 274.401 83.603C275.09 84.0309 275.63 84.5976 276.02 85.3033C276.399 86.0088 276.58 86.7868 276.564 87.6373ZM274.847 87.604C274.857 87.0806 274.74 86.6147 274.497 86.2064C274.254 85.7981 273.917 85.4752 273.485 85.2378C273.043 84.9892 272.544 84.8595 271.988 84.8487C271.431 84.8379 270.933 84.9482 270.492 85.1797C270.052 85.4002 269.702 85.7097 269.443 86.1083C269.185 86.5069 269.05 86.9679 269.04 87.4913C269.03 88.0038 269.147 88.4696 269.389 88.8888C269.632 89.2971 269.97 89.6255 270.401 89.8738C270.833 90.1113 271.327 90.2354 271.883 90.2462C272.439 90.257 272.943 90.1522 273.394 89.9319C273.835 89.7005 274.185 89.3855 274.443 88.9869C274.702 88.5774 274.837 88.1165 274.847 87.604ZM276.752 77.9493C276.734 78.8544 276.495 79.646 276.035 80.3243C275.575 80.9917 274.966 81.4543 274.208 81.7123L273.565 80.2764C274.072 80.0462 274.476 79.7268 274.778 79.3182C275.081 78.8986 275.237 78.4326 275.247 77.9201C275.256 77.484 275.164 77.1277 274.973 76.8513C274.782 76.5749 274.518 76.4334 274.18 76.4268C273.962 76.4226 273.786 76.4792 273.653 76.5966C273.509 76.7138 273.392 76.8642 273.301 77.0479C273.21 77.2207 273.141 77.3993 273.094 77.5838L272.674 78.9665C272.442 79.7255 272.103 80.2916 271.66 80.6648C271.205 81.0268 270.684 81.2022 270.095 81.1907C269.561 81.1804 269.1 81.0351 268.713 80.7548C268.315 80.4744 268.011 80.0922 267.802 79.6082C267.594 79.1242 267.495 78.5823 267.507 77.9826C267.522 77.1757 267.738 76.46 268.154 75.8354C268.559 75.2105 269.118 74.7742 269.832 74.5262L270.475 75.9622C270.046 76.1284 269.703 76.3999 269.445 76.7767C269.187 77.1426 269.053 77.5599 269.044 78.0288C269.036 78.4322 269.128 78.7558 269.32 78.9995C269.5 79.243 269.743 79.3677 270.049 79.3736C270.256 79.3776 270.431 79.3265 270.575 79.2202C270.708 79.1137 270.82 78.9741 270.911 78.8013C270.99 78.6283 271.059 78.4497 271.117 78.2654L271.57 76.8343C271.792 76.1078 272.13 75.5526 272.585 75.1687C273.028 74.7846 273.556 74.5985 274.166 74.6104C274.69 74.6205 275.15 74.7713 275.548 75.0626C275.935 75.3428 276.239 75.7305 276.458 76.2256C276.667 76.7205 276.765 77.2951 276.752 77.9493ZM276.933 68.6474C276.915 69.5306 276.698 70.3118 276.282 70.9909C275.854 71.6589 275.288 72.1879 274.582 72.5778C273.876 72.9568 273.082 73.1377 272.199 73.1206C271.327 73.1036 270.545 72.8921 269.855 72.486C269.165 72.0799 268.63 71.5296 268.251 70.835C267.861 70.1403 267.674 69.3513 267.691 68.468C267.703 67.8683 267.823 67.3089 268.051 66.7897C268.269 66.2703 268.566 65.8234 268.944 65.449C269.323 65.0637 269.759 64.7831 270.253 64.6072L270.974 66.2411C270.513 66.4175 270.142 66.7103 269.861 67.1194C269.57 67.5173 269.419 67.978 269.409 68.5014C269.399 69.0029 269.516 69.4579 269.759 69.8662C269.991 70.2634 270.328 70.5808 270.771 70.8185C271.203 71.056 271.697 71.1801 272.253 71.1909C272.809 71.2017 273.313 71.0969 273.764 70.8766C274.205 70.6561 274.554 70.352 274.813 69.9643C275.071 69.5657 275.205 69.1157 275.215 68.6141C275.226 68.0798 275.098 67.6137 274.833 67.2159C274.558 66.8069 274.187 66.4998 273.722 66.2944L274.522 64.6901C274.988 64.8736 275.408 65.1654 275.782 65.5654C276.145 65.9542 276.431 66.4124 276.638 66.94C276.846 67.4677 276.944 68.0368 276.933 68.6474ZM277.126 58.663C277.11 59.5135 276.893 60.2892 276.476 60.9902C276.059 61.6802 275.497 62.2256 274.791 62.6264C274.086 63.0272 273.291 63.219 272.408 63.2019C271.514 63.1845 270.727 62.962 270.048 62.5343C269.358 62.1064 268.824 61.5397 268.445 60.8343C268.055 60.1286 267.869 59.345 267.885 58.4836C267.902 57.6113 268.119 56.8356 268.536 56.1565C268.942 55.4662 269.498 54.9262 270.203 54.5363C270.898 54.1352 271.693 53.9434 272.587 53.9608C273.481 53.9781 274.273 54.2008 274.963 54.6286C275.653 55.0565 276.193 55.6233 276.583 56.329C276.962 57.0345 277.143 57.8125 277.126 58.663ZM275.409 58.6297C275.419 58.1063 275.303 57.6404 275.06 57.2321C274.817 56.8238 274.479 56.5009 274.048 56.2635C273.605 56.0149 273.106 55.8852 272.55 55.8744C271.994 55.8636 271.495 55.9739 271.055 56.2054C270.614 56.4259 270.264 56.7354 270.006 57.134C269.747 57.5326 269.613 57.9936 269.603 58.517C269.593 59.0294 269.709 59.4953 269.952 59.9145C270.195 60.3228 270.532 60.6512 270.964 60.8995C271.395 61.137 271.889 61.2611 272.445 61.2719C273.001 61.2827 273.505 61.1779 273.957 60.9576C274.397 60.7262 274.747 60.4112 275.006 60.0126C275.265 59.6031 275.399 59.1421 275.409 58.6297ZM277.055 52.2424L268.206 52.0707L268.24 50.3042L270.154 50.3414L269.855 50.5646C269.259 50.3676 268.813 50.0208 268.517 49.5242C268.222 49.0276 268.08 48.4631 268.092 47.8307C268.106 47.1219 268.309 46.4986 268.701 45.9608C269.083 45.4119 269.586 45.0508 270.211 44.8775L270.25 45.4019C269.546 45.1264 269.025 44.7181 268.687 44.1771C268.348 43.6251 268.186 43.0002 268.199 42.3023C268.211 41.6917 268.364 41.1438 268.657 40.6586C268.95 40.1626 269.35 39.7722 269.857 39.4875C270.365 39.2028 270.94 39.0668 271.583 39.0792L277.308 39.1904L277.272 41.0386L272.055 40.9373C271.608 40.9286 271.23 41.0031 270.921 41.1607C270.602 41.3073 270.358 41.5207 270.189 41.801C270.009 42.0702 269.916 42.3902 269.908 42.7609C269.901 43.1317 269.982 43.4605 270.151 43.7474C270.309 44.034 270.545 44.2622 270.858 44.4319C271.171 44.6016 271.545 44.6907 271.982 44.6992L277.199 44.8005L277.164 46.6323L271.946 46.531C271.499 46.5224 271.121 46.5968 270.813 46.7545C270.493 46.901 270.249 47.1144 270.08 47.3947C269.901 47.664 269.807 47.9894 269.8 48.371C269.792 48.7418 269.873 49.0706 270.042 49.3575C270.2 49.6441 270.436 49.8723 270.749 50.042C271.062 50.2008 271.437 50.2844 271.873 50.2929L277.091 50.3942L277.055 52.2424ZM277.362 36.3944L275.236 36.3531L275.273 34.4722L277.399 34.5135L277.362 36.3944ZM277.736 27.2768C277.719 28.1273 277.502 28.903 277.085 29.604C276.668 30.294 276.107 30.8394 275.401 31.2402C274.695 31.641 273.9 31.8328 273.017 31.8157C272.123 31.7983 271.336 31.5758 270.657 31.1481C269.968 30.7202 269.433 30.1536 269.054 29.4481C268.664 28.7424 268.478 27.9589 268.494 27.0974C268.511 26.2251 268.728 25.4494 269.145 24.7703C269.551 24.08 270.107 23.54 270.813 23.1501C271.508 22.7491 272.302 22.5572 273.196 22.5746C274.091 22.5919 274.882 22.8146 275.572 23.2425C276.262 23.6704 276.802 24.2372 277.192 24.9428C277.571 25.6483 277.752 26.4263 277.736 27.2768ZM276.018 27.2435C276.028 26.7201 275.912 26.2542 275.669 25.8459C275.426 25.4376 275.089 25.1147 274.657 24.8773C274.215 24.6287 273.715 24.499 273.159 24.4882C272.603 24.4774 272.105 24.5878 271.664 24.8192C271.223 25.0397 270.874 25.3492 270.615 25.7478C270.356 26.1464 270.222 26.6074 270.212 27.1308C270.202 27.6433 270.318 28.1091 270.561 28.5283C270.804 28.9366 271.141 29.265 271.573 29.5133C272.004 29.7508 272.498 29.8749 273.054 29.8857C273.611 29.8965 274.114 29.7917 274.566 29.5714C275.007 29.34 275.356 29.025 275.615 28.6264C275.874 28.217 276.008 27.756 276.018 27.2435ZM277.664 20.8562L268.815 20.6845L268.85 18.918L270.632 18.9526L270.368 19.1111C269.793 18.9036 269.385 18.5794 269.143 18.1383C268.89 17.6971 268.769 17.1712 268.781 16.5606L268.791 16.0208L270.476 16.0535L270.461 16.8222C270.449 17.4329 270.63 17.9327 271.005 18.3217C271.368 18.6997 271.899 18.8954 272.597 18.909L277.7 19.008L277.664 20.8562ZM281.46 10.7313C281.448 11.3747 281.332 11.9669 281.115 12.5081C280.897 13.0493 280.599 13.5126 280.221 13.8979C279.853 14.2835 279.422 14.5696 278.928 14.7564L278.257 13.0417C278.675 12.8971 279.024 12.6257 279.304 12.2275C279.585 11.8185 279.731 11.3141 279.742 10.7144C279.752 10.2455 279.667 9.82389 279.489 9.44956C279.322 9.07544 279.066 8.77595 278.721 8.5511C278.387 8.32646 277.98 8.20948 277.501 8.20017L275.505 8.16143L275.888 7.84162C276.449 8.15794 276.871 8.59155 277.155 9.14246C277.439 9.68247 277.574 10.2905 277.561 10.9665C277.545 11.7843 277.34 12.5167 276.946 13.1635C276.552 13.8103 276.018 14.3181 275.346 14.6868C274.673 15.0446 273.923 15.2155 273.094 15.1994C272.255 15.1831 271.511 14.9833 270.864 14.5998C270.217 14.2055 269.709 13.683 269.34 13.0322C268.971 12.3815 268.795 11.6417 268.811 10.813C268.824 10.137 268.983 9.54014 269.287 9.02246C269.581 8.49367 270.004 8.06556 270.556 7.73812L271.009 7.99235L269.062 7.95456L269.096 6.20448L277.536 6.3683C278.299 6.38312 278.977 6.58171 279.57 6.96409C280.173 7.33577 280.643 7.84667 280.98 8.49678C281.316 9.14688 281.476 9.89174 281.46 10.7313ZM275.848 10.7206C275.858 10.2299 275.752 9.79152 275.53 9.40544C275.298 9.01914 274.987 8.71315 274.599 8.48745C274.2 8.25063 273.75 8.12736 273.248 8.11762C272.746 8.10788 272.292 8.21359 271.884 8.43474C271.476 8.6559 271.154 8.95507 270.917 9.33226C270.67 9.70925 270.542 10.1376 270.532 10.6174C270.523 11.119 270.634 11.5684 270.866 11.9656C271.088 12.3626 271.398 12.6795 271.797 12.9163C272.185 13.142 272.635 13.2598 273.148 13.2697C273.639 13.2793 274.088 13.1789 274.495 12.9687C274.903 12.7475 275.231 12.443 275.479 12.0551C275.715 11.667 275.838 11.2222 275.848 10.7206Z" fill="black"/>
</svg>
