<svg width="522" height="89" viewBox="0 0 522 89" fill="none" xmlns="http://www.w3.org/2000/svg">
<rect y="35" width="520" height="32" fill="url(#paint0_linear_126_8)"/>
<path d="M85.3402 55.78H89.9402V58H82.5402V44.04H85.3402V55.78ZM94.5198 46.3V49.8H99.2198V52.02H94.5198V55.72H99.8198V58H91.7198V44.02H99.8198V46.3H94.5198ZM111.864 44.04V46.3H108.144V58H105.344V46.3H101.624V44.04H111.864ZM114.467 44.04H117.407L115.247 49.08H113.327L114.467 44.04ZM124.235 58.14C123.262 58.14 122.382 57.9733 121.595 57.64C120.822 57.3067 120.208 56.8267 119.755 56.2C119.302 55.5733 119.068 54.8333 119.055 53.98H122.055C122.095 54.5533 122.295 55.0067 122.655 55.34C123.028 55.6733 123.535 55.84 124.175 55.84C124.828 55.84 125.342 55.6867 125.715 55.38C126.088 55.06 126.275 54.6467 126.275 54.14C126.275 53.7267 126.148 53.3867 125.895 53.12C125.642 52.8533 125.322 52.6467 124.935 52.5C124.562 52.34 124.042 52.1667 123.375 51.98C122.468 51.7133 121.728 51.4533 121.155 51.2C120.595 50.9333 120.108 50.54 119.695 50.02C119.295 49.4867 119.095 48.78 119.095 47.9C119.095 47.0733 119.302 46.3533 119.715 45.74C120.128 45.1267 120.708 44.66 121.455 44.34C122.202 44.0067 123.055 43.84 124.015 43.84C125.455 43.84 126.622 44.1933 127.515 44.9C128.422 45.5933 128.922 46.5667 129.015 47.82H125.935C125.908 47.34 125.702 46.9467 125.315 46.64C124.942 46.32 124.442 46.16 123.815 46.16C123.268 46.16 122.828 46.3 122.495 46.58C122.175 46.86 122.015 47.2667 122.015 47.8C122.015 48.1733 122.135 48.4867 122.375 48.74C122.628 48.98 122.935 49.18 123.295 49.34C123.668 49.4867 124.188 49.66 124.855 49.86C125.762 50.1267 126.502 50.3933 127.075 50.66C127.648 50.9267 128.142 51.3267 128.555 51.86C128.968 52.3933 129.175 53.0933 129.175 53.96C129.175 54.7067 128.982 55.4 128.595 56.04C128.208 56.68 127.642 57.1933 126.895 57.58C126.148 57.9533 125.262 58.14 124.235 58.14ZM146.088 48.24C145.768 47.6533 145.328 47.2067 144.768 46.9C144.208 46.5933 143.555 46.44 142.808 46.44C141.982 46.44 141.248 46.6267 140.608 47C139.968 47.3733 139.468 47.9067 139.108 48.6C138.748 49.2933 138.568 50.0933 138.568 51C138.568 51.9333 138.748 52.7467 139.108 53.44C139.482 54.1333 139.995 54.6667 140.648 55.04C141.302 55.4133 142.062 55.6 142.928 55.6C143.995 55.6 144.868 55.32 145.548 54.76C146.228 54.1867 146.675 53.3933 146.888 52.38H142.088V50.24H149.648V52.68C149.462 53.6533 149.062 54.5533 148.448 55.38C147.835 56.2067 147.042 56.8733 146.068 57.38C145.108 57.8733 144.028 58.12 142.828 58.12C141.482 58.12 140.262 57.82 139.168 57.22C138.088 56.6067 137.235 55.76 136.608 54.68C135.995 53.6 135.688 52.3733 135.688 51C135.688 49.6267 135.995 48.4 136.608 47.32C137.235 46.2267 138.088 45.38 139.168 44.78C140.262 44.1667 141.475 43.86 142.808 43.86C144.382 43.86 145.748 44.2467 146.908 45.02C148.068 45.78 148.868 46.8533 149.308 48.24H146.088ZM154.52 46.3V49.8H159.22V52.02H154.52V55.72H159.82V58H151.72V44.02H159.82V46.3H154.52ZM171.864 44.04V46.3H168.144V58H165.344V46.3H161.624V44.04H171.864ZM177.993 51C177.993 49.6267 178.3 48.4 178.913 47.32C179.54 46.2267 180.386 45.38 181.453 44.78C182.533 44.1667 183.74 43.86 185.073 43.86C186.633 43.86 188 44.26 189.173 45.06C190.346 45.86 191.166 46.9667 191.633 48.38H188.413C188.093 47.7133 187.64 47.2133 187.053 46.88C186.48 46.5467 185.813 46.38 185.053 46.38C184.24 46.38 183.513 46.5733 182.873 46.96C182.246 47.3333 181.753 47.8667 181.393 48.56C181.046 49.2533 180.873 50.0667 180.873 51C180.873 51.92 181.046 52.7333 181.393 53.44C181.753 54.1333 182.246 54.6733 182.873 55.06C183.513 55.4333 184.24 55.62 185.053 55.62C185.813 55.62 186.48 55.4533 187.053 55.12C187.64 54.7733 188.093 54.2667 188.413 53.6H191.633C191.166 55.0267 190.346 56.14 189.173 56.94C188.013 57.7267 186.646 58.12 185.073 58.12C183.74 58.12 182.533 57.82 181.453 57.22C180.386 56.6067 179.54 55.76 178.913 54.68C178.3 53.6 177.993 52.3733 177.993 51ZM196.825 55.78H201.425V58H194.025V44.04H196.825V55.78ZM209.684 58.14C208.378 58.14 207.178 57.8333 206.084 57.22C204.991 56.6067 204.124 55.76 203.484 54.68C202.844 53.5867 202.524 52.3533 202.524 50.98C202.524 49.62 202.844 48.4 203.484 47.32C204.124 46.2267 204.991 45.3733 206.084 44.76C207.178 44.1467 208.378 43.84 209.684 43.84C211.004 43.84 212.204 44.1467 213.284 44.76C214.378 45.3733 215.238 46.2267 215.864 47.32C216.504 48.4 216.824 49.62 216.824 50.98C216.824 52.3533 216.504 53.5867 215.864 54.68C215.238 55.76 214.378 56.6067 213.284 57.22C212.191 57.8333 210.991 58.14 209.684 58.14ZM209.684 55.64C210.524 55.64 211.264 55.4533 211.904 55.08C212.544 54.6933 213.044 54.1467 213.404 53.44C213.764 52.7333 213.944 51.9133 213.944 50.98C213.944 50.0467 213.764 49.2333 213.404 48.54C213.044 47.8333 212.544 47.2933 211.904 46.92C211.264 46.5467 210.524 46.36 209.684 46.36C208.844 46.36 208.098 46.5467 207.444 46.92C206.804 47.2933 206.304 47.8333 205.944 48.54C205.584 49.2333 205.404 50.0467 205.404 50.98C205.404 51.9133 205.584 52.7333 205.944 53.44C206.304 54.1467 206.804 54.6933 207.444 55.08C208.098 55.4533 208.844 55.64 209.684 55.64ZM223.727 58.14C222.754 58.14 221.874 57.9733 221.087 57.64C220.314 57.3067 219.701 56.8267 219.247 56.2C218.794 55.5733 218.561 54.8333 218.547 53.98H221.547C221.587 54.5533 221.787 55.0067 222.147 55.34C222.521 55.6733 223.027 55.84 223.667 55.84C224.321 55.84 224.834 55.6867 225.207 55.38C225.581 55.06 225.767 54.6467 225.767 54.14C225.767 53.7267 225.641 53.3867 225.387 53.12C225.134 52.8533 224.814 52.6467 224.427 52.5C224.054 52.34 223.534 52.1667 222.867 51.98C221.961 51.7133 221.221 51.4533 220.647 51.2C220.087 50.9333 219.601 50.54 219.187 50.02C218.787 49.4867 218.587 48.78 218.587 47.9C218.587 47.0733 218.794 46.3533 219.207 45.74C219.621 45.1267 220.201 44.66 220.947 44.34C221.694 44.0067 222.547 43.84 223.507 43.84C224.947 43.84 226.114 44.1933 227.007 44.9C227.914 45.5933 228.414 46.5667 228.507 47.82H225.427C225.401 47.34 225.194 46.9467 224.807 46.64C224.434 46.32 223.934 46.16 223.307 46.16C222.761 46.16 222.321 46.3 221.987 46.58C221.667 46.86 221.507 47.2667 221.507 47.8C221.507 48.1733 221.627 48.4867 221.867 48.74C222.121 48.98 222.427 49.18 222.787 49.34C223.161 49.4867 223.681 49.66 224.347 49.86C225.254 50.1267 225.994 50.3933 226.567 50.66C227.141 50.9267 227.634 51.3267 228.047 51.86C228.461 52.3933 228.667 53.0933 228.667 53.96C228.667 54.7067 228.474 55.4 228.087 56.04C227.701 56.68 227.134 57.1933 226.387 57.58C225.641 57.9533 224.754 58.14 223.727 58.14ZM233.895 46.3V49.8H238.595V52.02H233.895V55.72H239.195V58H231.095V44.02H239.195V46.3H233.895ZM248.939 58L245.859 52.56H244.539V58H241.739V44.04H246.979C248.059 44.04 248.979 44.2333 249.739 44.62C250.499 44.9933 251.066 45.5067 251.439 46.16C251.826 46.8 252.019 47.52 252.019 48.32C252.019 49.24 251.753 50.0733 251.219 50.82C250.686 51.5533 249.893 52.06 248.839 52.34L252.179 58H248.939ZM244.539 50.46H246.879C247.639 50.46 248.206 50.28 248.579 49.92C248.953 49.5467 249.139 49.0333 249.139 48.38C249.139 47.74 248.953 47.2467 248.579 46.9C248.206 46.54 247.639 46.36 246.879 46.36H244.539V50.46ZM257.612 55.06L255.272 60.68H253.472L254.772 55.06H257.612ZM267.196 55.78H271.796V58H264.396V44.04H267.196V55.78ZM276.375 46.3V49.8H281.075V52.02H276.375V55.72H281.675V58H273.575V44.02H281.675V46.3H276.375ZM293.72 44.04V46.3H290V58H287.2V46.3H283.48V44.04H293.72ZM296.323 44.04H299.263L297.103 49.08H295.183L296.323 44.04ZM306.091 58.14C305.117 58.14 304.237 57.9733 303.451 57.64C302.677 57.3067 302.064 56.8267 301.611 56.2C301.157 55.5733 300.924 54.8333 300.911 53.98H303.911C303.951 54.5533 304.151 55.0067 304.511 55.34C304.884 55.6733 305.391 55.84 306.031 55.84C306.684 55.84 307.197 55.6867 307.571 55.38C307.944 55.06 308.131 54.6467 308.131 54.14C308.131 53.7267 308.004 53.3867 307.751 53.12C307.497 52.8533 307.177 52.6467 306.791 52.5C306.417 52.34 305.897 52.1667 305.231 51.98C304.324 51.7133 303.584 51.4533 303.011 51.2C302.451 50.9333 301.964 50.54 301.551 50.02C301.151 49.4867 300.951 48.78 300.951 47.9C300.951 47.0733 301.157 46.3533 301.571 45.74C301.984 45.1267 302.564 44.66 303.311 44.34C304.057 44.0067 304.911 43.84 305.871 43.84C307.311 43.84 308.477 44.1933 309.371 44.9C310.277 45.5933 310.777 46.5667 310.871 47.82H307.791C307.764 47.34 307.557 46.9467 307.171 46.64C306.797 46.32 306.297 46.16 305.671 46.16C305.124 46.16 304.684 46.3 304.351 46.58C304.031 46.86 303.871 47.2667 303.871 47.8C303.871 48.1733 303.991 48.4867 304.231 48.74C304.484 48.98 304.791 49.18 305.151 49.34C305.524 49.4867 306.044 49.66 306.711 49.86C307.617 50.1267 308.357 50.3933 308.931 50.66C309.504 50.9267 309.997 51.3267 310.411 51.86C310.824 52.3933 311.031 53.0933 311.031 53.96C311.031 54.7067 310.837 55.4 310.451 56.04C310.064 56.68 309.497 57.1933 308.751 57.58C308.004 57.9533 307.117 58.14 306.091 58.14ZM327.944 48.24C327.624 47.6533 327.184 47.2067 326.624 46.9C326.064 46.5933 325.41 46.44 324.664 46.44C323.837 46.44 323.104 46.6267 322.464 47C321.824 47.3733 321.324 47.9067 320.964 48.6C320.604 49.2933 320.424 50.0933 320.424 51C320.424 51.9333 320.604 52.7467 320.964 53.44C321.337 54.1333 321.85 54.6667 322.504 55.04C323.157 55.4133 323.917 55.6 324.784 55.6C325.85 55.6 326.724 55.32 327.404 54.76C328.084 54.1867 328.53 53.3933 328.744 52.38H323.944V50.24H331.504V52.68C331.317 53.6533 330.917 54.5533 330.304 55.38C329.69 56.2067 328.897 56.8733 327.924 57.38C326.964 57.8733 325.884 58.12 324.684 58.12C323.337 58.12 322.117 57.82 321.024 57.22C319.944 56.6067 319.09 55.76 318.464 54.68C317.85 53.6 317.544 52.3733 317.544 51C317.544 49.6267 317.85 48.4 318.464 47.32C319.09 46.2267 319.944 45.38 321.024 44.78C322.117 44.1667 323.33 43.86 324.664 43.86C326.237 43.86 327.604 44.2467 328.764 45.02C329.924 45.78 330.724 46.8533 331.164 48.24H327.944ZM336.375 46.3V49.8H341.075V52.02H336.375V55.72H341.675V58H333.575V44.02H341.675V46.3H336.375ZM353.72 44.04V46.3H350V58H347.2V46.3H343.48V44.04H353.72ZM363.328 55.78H367.928V58H360.528V44.04H363.328V55.78ZM376.188 58.14C374.881 58.14 373.681 57.8333 372.588 57.22C371.495 56.6067 370.628 55.76 369.988 54.68C369.348 53.5867 369.028 52.3533 369.028 50.98C369.028 49.62 369.348 48.4 369.988 47.32C370.628 46.2267 371.495 45.3733 372.588 44.76C373.681 44.1467 374.881 43.84 376.188 43.84C377.508 43.84 378.708 44.1467 379.788 44.76C380.881 45.3733 381.741 46.2267 382.368 47.32C383.008 48.4 383.328 49.62 383.328 50.98C383.328 52.3533 383.008 53.5867 382.368 54.68C381.741 55.76 380.881 56.6067 379.788 57.22C378.695 57.8333 377.495 58.14 376.188 58.14ZM376.188 55.64C377.028 55.64 377.768 55.4533 378.408 55.08C379.048 54.6933 379.548 54.1467 379.908 53.44C380.268 52.7333 380.448 51.9133 380.448 50.98C380.448 50.0467 380.268 49.2333 379.908 48.54C379.548 47.8333 379.048 47.2933 378.408 46.92C377.768 46.5467 377.028 46.36 376.188 46.36C375.348 46.36 374.601 46.5467 373.948 46.92C373.308 47.2933 372.808 47.8333 372.448 48.54C372.088 49.2333 371.908 50.0467 371.908 50.98C371.908 51.9133 372.088 52.7333 372.448 53.44C372.808 54.1467 373.308 54.6933 373.948 55.08C374.601 55.4533 375.348 55.64 376.188 55.64ZM388.171 44.04V52.68C388.171 53.6267 388.418 54.3533 388.911 54.86C389.405 55.3533 390.098 55.6 390.991 55.6C391.898 55.6 392.598 55.3533 393.091 54.86C393.585 54.3533 393.831 53.6267 393.831 52.68V44.04H396.651V52.66C396.651 53.8467 396.391 54.8533 395.871 55.68C395.365 56.4933 394.678 57.1067 393.811 57.52C392.958 57.9333 392.005 58.14 390.951 58.14C389.911 58.14 388.965 57.9333 388.111 57.52C387.271 57.1067 386.605 56.4933 386.111 55.68C385.618 54.8533 385.371 53.8467 385.371 52.66V44.04H388.171ZM404.237 44.04C405.703 44.04 406.99 44.3267 408.097 44.9C409.217 45.4733 410.077 46.2933 410.677 47.36C411.29 48.4133 411.597 49.64 411.597 51.04C411.597 52.44 411.29 53.6667 410.677 54.72C410.077 55.76 409.217 56.5667 408.097 57.14C406.99 57.7133 405.703 58 404.237 58H399.357V44.04H404.237ZM404.137 55.62C405.603 55.62 406.737 55.22 407.537 54.42C408.337 53.62 408.737 52.4933 408.737 51.04C408.737 49.5867 408.337 48.4533 407.537 47.64C406.737 46.8133 405.603 46.4 404.137 46.4H402.157V55.62H404.137ZM416.493 46.3V49.8H421.193V52.02H416.493V55.72H421.793V58H413.693V44.02H421.793V46.3H416.493ZM431.537 58L428.457 52.56H427.137V58H424.337V44.04H429.577C430.657 44.04 431.577 44.2333 432.337 44.62C433.097 44.9933 433.664 45.5067 434.037 46.16C434.424 46.8 434.617 47.52 434.617 48.32C434.617 49.24 434.35 50.0733 433.817 50.82C433.284 51.5533 432.49 52.06 431.437 52.34L434.777 58H431.537ZM427.137 50.46H429.477C430.237 50.46 430.804 50.28 431.177 49.92C431.55 49.5467 431.737 49.0333 431.737 48.38C431.737 47.74 431.55 47.2467 431.177 46.9C430.804 46.54 430.237 46.36 429.477 46.36H427.137V50.46ZM440.77 43.8L440.45 53.46H438.09L437.75 43.8H440.77ZM439.33 58.14C438.823 58.14 438.403 57.9867 438.07 57.68C437.75 57.36 437.59 56.9667 437.59 56.5C437.59 56.0333 437.75 55.6467 438.07 55.34C438.403 55.02 438.823 54.86 439.33 54.86C439.823 54.86 440.23 55.02 440.55 55.34C440.87 55.6467 441.03 56.0333 441.03 56.5C441.03 56.9667 440.87 57.36 440.55 57.68C440.23 57.9867 439.823 58.14 439.33 58.14Z" fill="#018BD2"/>
<defs>
<linearGradient id="paint0_linear_126_8" x1="0" y1="51" x2="520" y2="51" gradientUnits="userSpaceOnUse">
<stop stop-color="#018BD2" stop-opacity="0"/>
<stop offset="0.0913462" stop-color="white"/>
<stop offset="0.9" stop-color="white"/>
<stop offset="1" stop-color="#018BD2" stop-opacity="0"/>
</linearGradient>
</defs>
</svg>
